<?xml version="1.0" encoding="iso-8859-1"?>
<!-- Generator: Adobe Illustrator 17.0.0, SVG Export Plug-In . SVG Version: 6.00 Build 0)  -->
<!DOCTYPE svg PUBLIC "-//W3C//DTD SVG 1.1//EN" "http://www.w3.org/Graphics/SVG/1.1/DTD/svg11.dtd">
<svg version="1.1" xmlns="http://www.w3.org/2000/svg" xmlns:xlink="http://www.w3.org/1999/xlink"
     width="1500px" height="906px" viewBox="0 0 1808.000000 1086.000000" preserveAspectRatio="xMidYMid meet" >
                <g transform="translate(0.000000,1086.000000) scale(0.100000,-0.100000)" fill="#a55dbb" stroke="none">
                <path name="WA" d="M1931 10851 c-11 -7 -11 -15 -2 -44 7 -19 19 -41 27 -47 15 -13 20 -70 5 -70 -5 0 -8 -8 -7 -17 1 -13 -5 -17 -21 -15 -13 2 -23 -2 -23 -9 0 -7 -10 -23 -22 -36 -18 -20 -20 -26 -10 -48 7 -14 12 -36 12 -49 0 -29 36 -64 51 -49 8 8 5 17 -10 32 -12 12 -21 28 -21 37 0 8 -5 24 -11 35 -9 17 -7 21 11 26 16 4 20 11 16 27 -5 19 -3 18 14 -4 15 -19 18 -35 14 -67 -3 -23 0 -51 6 -63 10 -19 8 -26 -21 -56 -18 -19 -29 -34 -25 -34 5 0 3 -7 -4 -15 -7 -8 -10 -21 -7 -30 4 -8 2 -17 -3 -20 -6 -4 -10 -22 -10 -41 0 -30 -5 -37 -33 -49 -19 -8 -39 -21 -47 -29 -14 -18 -50 -22 -50 -6 0 6 4 10 9 10 5 0 11 10 13 22 2 12 9 23 16 26 7 2 11 -2 10 -8 -7 -29 20 -17 35 15 22 45 21 61 0 74 -10 6 -12 11 -5 11 6 0 12 9 12 20 0 11 7 20 15 20 19 0 36 32 25 50 -6 10 -12 11 -22 3 -11 -9 -13 0 -13 48 1 59 -6 73 -23 43 -8 -15 -10 -15 -15 1 -4 9 -11 14 -16 11 -5 -3 -11 5 -15 17 -4 19 -11 23 -35 19 -16 -2 -32 1 -35 7 -4 6 -15 11 -24 11 -9 0 -30 7 -46 15 -15 8 -34 15 -41 15 -12 0 -47 26 -142 105 -41 34 -60 44 -48 25 3 -5 -1 -26 -10 -46 -18 -44 -20 -125 -2 -143 9 -9 12 -57 11 -177 0 -91 2 -160 6 -153 5 7 15 3 29 -13 l23 -23 -36 -9 c-29 -8 -36 -14 -36 -33 0 -18 8 -27 30 -34 33 -12 41 -28 13 -25 -11 0 -18 -6 -19 -19 -1 -27 -14 -55 -25 -55 -5 0 -6 15 -2 33 9 48 -12 21 -25 -32 -10 -40 -9 -46 11 -62 15 -11 31 -16 50 -12 15 3 27 1 27 -5 0 -5 11 -13 24 -16 13 -3 31 -17 40 -31 9 -14 25 -25 35 -25 11 0 31 -15 46 -32 27 -31 27 -36 22 -115 l-6 -82 63 -30 c58 -29 66 -30 112 -20 27 6 66 10 86 10 43 -2 124 -34 130 -52 3 -8 28 -12 82 -11 55 0 86 -4 102 -15 20 -13 32 -13 71 -4 27 7 98 11 158 11 61 -1 129 -1 153 0 24 0 71 -7 104 -16 99 -25 431 -94 436 -90 2 2 5 49 6 104 3 80 22 184 97 535 51 240 90 439 87 443 -4 3 -78 21 -165 39 -325 69 -829 192 -1183 290 -8 3 -21 1 -29 -4z"/>
                <path name="MT" d="M4057 10396 c-2 -6 -19 -89 -38 -184 -28 -147 -31 -176 -20 -194 34 -55 61 -178 39 -178 -16 0 -7 -16 33 -60 23 -25 55 -70 71 -100 17 -30 34 -59 39 -64 5 -6 9 -19 9 -30 1 -24 32 -66 50 -66 6 0 9 -4 5 -9 -7 -12 9 -22 41 -26 14 -1 27 -5 30 -7 4 -5 -18 -62 -53 -137 -10 -19 -16 -56 -15 -87 1 -43 -2 -56 -17 -64 -10 -5 -21 -22 -23 -37 -3 -16 -8 -35 -11 -43 -4 -9 5 -24 23 -38 l29 -23 52 26 c48 25 52 25 70 9 14 -12 19 -31 19 -68 0 -34 9 -70 26 -106 17 -37 24 -64 20 -83 -7 -35 9 -67 33 -67 28 0 43 -25 48 -82 4 -53 24 -98 43 -98 6 0 10 6 10 14 0 22 27 27 76 15 38 -10 47 -9 63 5 10 9 20 14 23 11 3 -3 45 -12 94 -20 93 -15 90 -15 115 28 16 28 33 20 54 -25 11 -23 25 -44 30 -45 7 -2 16 29 22 73 6 42 16 81 22 87 7 7 88 0 278 -26 470 -64 988 -120 1366 -148 137 -10 170 -10 177 0 4 7 10 61 14 119 4 59 24 361 46 672 21 311 40 588 42 615 l2 50 -204 17 c-429 36 -987 99 -1445 164 -349 49 -1080 175 -1267 218 -9 2 -19 -1 -21 -8z"/>
                <path name="ME" d="M17430 10318 c-61 -56 -87 -70 -111 -58 -11 7 -25 25 -31 41 -10 29 -23 35 -46 21 -7 -5 -36 -81 -66 -169 -48 -144 -53 -166 -45 -206 6 -35 4 -53 -7 -77 -17 -33 -12 -133 8 -157 6 -8 6 -19 -1 -32 -6 -11 -11 -27 -11 -37 0 -9 -12 -32 -26 -51 -19 -25 -25 -43 -21 -66 2 -18 -1 -37 -9 -44 -7 -8 -10 -21 -7 -29 5 -13 0 -15 -23 -12 -21 2 -30 -2 -32 -14 -2 -9 42 -153 97 -320 56 -167 101 -309 101 -316 0 -25 30 -71 50 -77 11 -3 20 -12 20 -19 0 -7 9 -21 19 -30 19 -17 20 -17 36 8 10 15 14 33 10 45 -4 13 2 31 16 50 13 18 20 38 16 50 -3 11 1 28 8 38 7 10 11 31 8 48 -3 21 1 38 16 55 17 21 20 22 21 8 0 -25 15 -22 27 5 l10 22 7 -23 8 -24 14 27 c8 15 12 31 9 35 -3 5 5 6 17 2 14 -3 19 -1 14 6 -4 8 -2 10 8 6 11 -4 15 3 18 28 3 29 6 33 30 30 37 -4 47 20 49 117 1 44 4 81 8 82 3 0 14 2 24 4 14 3 18 -1 14 -16 -4 -13 0 -19 11 -19 10 0 26 -3 37 -6 19 -5 20 -1 17 35 -4 35 -2 40 13 35 11 -5 18 0 21 14 6 22 37 20 67 -6 16 -14 17 -13 17 11 0 19 4 25 15 21 11 -5 15 1 15 25 0 33 8 39 28 19 9 -9 12 -9 12 0 0 7 7 12 15 12 8 0 15 5 15 10 0 15 43 56 67 64 27 9 56 71 39 85 -9 7 -16 7 -23 0 -17 -17 -26 7 -11 30 10 17 9 24 -12 46 -24 26 -54 33 -65 14 -9 -14 -45 19 -45 41 0 9 -5 21 -12 28 -7 7 -12 24 -13 40 0 23 -4 27 -30 27 -52 1 -85 15 -85 37 0 29 -143 458 -152 458 -5 0 -26 11 -47 25 -21 14 -53 28 -72 31 -28 4 -40 0 -69 -28z"/>
                <path name="ID" d="M3455 10096 c-3 -12 -30 -136 -60 -276 -31 -140 -64 -293 -75 -340 -11 -47 -22 -101 -25 -120 -3 -19 -11 -69 -18 -110 -12 -65 -13 -109 -8 -232 1 -17 15 -44 35 -66 52 -57 55 -82 13 -129 -19 -21 -43 -56 -55 -78 -11 -22 -29 -49 -41 -59 -12 -11 -21 -27 -21 -37 0 -9 -17 -32 -37 -50 -53 -46 -91 -101 -98 -142 -6 -33 -4 -37 25 -52 30 -15 31 -19 25 -53 -7 -36 -25 -82 -44 -112 -11 -17 -144 -651 -137 -657 14 -15 891 -180 1261 -237 127 -20 255 -40 285 -45 30 -5 56 -8 57 -7 1 1 32 205 68 454 l67 451 -27 56 c-15 30 -33 55 -41 55 -7 0 -23 -13 -34 -28 l-21 -28 -80 12 c-43 7 -84 16 -90 19 -5 4 -21 0 -34 -9 -18 -12 -30 -13 -50 -6 -39 15 -73 12 -84 -7 -15 -28 -38 1 -46 60 -8 62 -28 97 -55 97 -26 0 -33 16 -31 66 0 26 -7 58 -19 81 -10 21 -22 65 -26 98 -4 33 -14 70 -21 82 l-15 22 -54 -29 -54 -29 -26 26 c-23 22 -24 29 -14 48 7 13 10 28 6 33 -3 6 4 18 16 27 20 13 23 23 21 69 -2 42 4 66 28 117 17 34 32 74 32 88 2 22 -3 26 -30 29 -18 2 -33 7 -33 12 0 5 -13 24 -30 42 -16 18 -30 42 -30 55 0 12 -5 25 -10 28 -6 4 -24 33 -41 66 -16 33 -36 62 -44 65 -27 11 -49 58 -47 104 2 48 -8 82 -40 142 l-19 38 36 181 c20 99 35 182 33 184 -2 1 -56 14 -121 27 l-118 24 -4 -20z"/>
                <path name="ND" d="M7170 9943 c-1 -10 -18 -261 -39 -558 -21 -297 -37 -542 -35 -544 15 -16 968 -59 1493 -67 l434 -7 -7 74 c-5 46 -15 86 -28 107 -16 27 -22 66 -34 240 -10 130 -21 222 -31 247 -34 90 -46 154 -48 261 -1 61 -7 131 -14 156 l-13 45 -346 7 c-364 7 -927 30 -1147 46 -179 14 -185 13 -185 -7z"/>
                <path name="MN" d="M9608 9851 l-3 -66 -252 -3 c-275 -3 -262 1 -242 -62 6 -19 10 -81 9 -137 -1 -102 11 -170 47 -253 9 -19 19 -82 24 -140 24 -311 28 -341 47 -373 22 -36 35 -153 22 -198 -5 -15 -23 -41 -40 -56 l-33 -29 27 -42 c14 -23 32 -42 40 -42 7 0 20 -8 29 -18 15 -17 17 -56 17 -350 l0 -332 193 0 c312 0 1192 34 1206 46 2 2 -2 32 -8 66 -14 72 -41 107 -109 139 -25 13 -54 38 -69 61 -16 24 -46 49 -75 64 -26 13 -48 28 -48 33 0 4 -17 13 -37 20 -21 6 -49 21 -63 34 -24 21 -25 27 -24 122 1 55 6 111 11 125 12 29 -8 80 -32 80 -51 0 -3 105 71 154 l49 32 -2 107 c-2 118 0 122 77 191 52 47 127 123 211 217 61 68 90 91 145 118 145 71 170 84 194 108 l25 25 -51 -6 c-43 -5 -54 -3 -68 13 -12 13 -27 19 -45 16 -14 -2 -51 -6 -82 -9 -52 -5 -57 -4 -67 19 -6 14 -15 25 -20 25 -5 0 -33 -18 -62 -40 -62 -46 -100 -51 -133 -17 -12 13 -36 29 -54 36 -17 7 -34 19 -37 27 -3 8 -19 14 -36 14 -23 0 -30 -4 -30 -20 0 -27 -29 -15 -41 17 -5 14 -18 27 -29 30 -11 3 -17 9 -14 14 9 15 -84 49 -134 49 -30 0 -58 -7 -77 -20 -36 -24 -74 -26 -90 -4 -7 10 -32 19 -64 22 -28 2 -54 9 -57 13 -3 5 -20 9 -38 9 -19 0 -38 6 -43 13 -5 6 -18 48 -28 92 -23 99 -36 121 -74 127 l-30 4 -3 -65z"/>
                <path name="OR" d="M1256 9517 c-3 -19 -15 -51 -25 -72 -10 -21 -16 -46 -14 -55 3 -10 -5 -38 -16 -63 -12 -25 -21 -52 -21 -59 0 -7 -19 -51 -41 -98 -42 -85 -56 -127 -66 -187 -3 -18 -9 -33 -13 -33 -4 0 -13 -15 -20 -32 -42 -113 -85 -215 -95 -228 -7 -8 -22 -34 -34 -57 -12 -24 -26 -43 -31 -43 -5 0 -19 -19 -31 -42 -12 -24 -33 -58 -46 -76 -22 -30 -25 -41 -19 -86 4 -41 1 -61 -14 -91 -23 -44 -27 -129 -9 -169 14 -30 -5 -24 364 -125 477 -131 1028 -267 1418 -350 l137 -29 5 22 c3 11 34 158 69 326 42 204 71 317 85 340 11 19 21 44 21 56 0 11 5 25 10 30 15 15 4 37 -30 56 -26 15 -30 22 -24 45 9 39 52 100 91 130 17 13 37 40 43 58 6 18 18 39 26 46 9 7 25 31 36 53 11 23 36 58 54 79 42 45 42 67 5 109 -16 18 -35 49 -44 69 -13 32 -20 37 -58 43 -24 4 -136 27 -249 53 -229 51 -286 56 -478 42 -116 -8 -137 -7 -161 7 -21 12 -35 14 -62 6 -43 -11 -101 -4 -112 14 -22 37 -121 55 -220 39 -42 -7 -57 -4 -108 21 -55 26 -60 31 -58 59 5 72 -2 104 -27 134 -17 21 -35 31 -53 31 -15 0 -36 8 -45 19 -9 10 -36 21 -59 24 -24 3 -50 9 -59 12 -12 5 -17 -2 -22 -28z"/>
                <path name="WI" d="M11810 9447 c-31 -16 -50 -36 -65 -65 -11 -24 -25 -39 -33 -37 -7 3 -32 -14 -56 -38 -66 -66 -114 -96 -165 -103 -33 -4 -56 -16 -81 -39 -19 -19 -54 -41 -77 -50 -49 -19 -54 -31 -19 -45 13 -5 32 -22 42 -39 16 -28 25 -31 138 -51 67 -12 140 -31 164 -41 24 -10 80 -21 124 -24 91 -7 118 -17 118 -45 0 -14 10 -22 33 -28 43 -11 58 -44 50 -105 -6 -48 -6 -48 20 -42 25 7 26 5 21 -27 -4 -24 -1 -38 10 -47 9 -8 18 -12 19 -10 14 19 67 132 76 161 7 20 19 42 27 48 7 7 14 23 14 36 0 28 8 30 26 7 12 -17 15 -16 43 15 31 33 61 42 61 18 0 -7 -7 -19 -15 -26 -15 -12 -21 -40 -9 -40 13 0 84 78 84 93 0 24 21 34 84 42 48 5 65 13 87 36 43 46 126 39 191 -16 34 -29 48 -25 48 14 l0 28 97 2 c53 1 99 3 101 5 7 8 -40 64 -63 74 -13 6 -25 23 -28 39 -3 16 -15 40 -26 54 l-19 24 -24 -23 c-14 -12 -28 -19 -32 -15 -4 5 -31 8 -59 8 l-52 0 -3 48 c-3 44 -5 47 -30 47 -15 0 -42 -9 -59 -20 -18 -11 -65 -24 -105 -29 -95 -12 -113 -20 -171 -73 -40 -38 -52 -44 -80 -40 -17 2 -38 9 -44 14 -8 7 -23 6 -44 -1 -48 -17 -52 -15 -97 40 -23 28 -58 60 -77 70 -46 25 -119 20 -153 -10 -13 -11 -25 -21 -26 -21 -1 0 -2 16 -2 35 1 19 3 35 6 35 3 0 30 34 60 75 30 41 63 76 73 77 34 6 22 23 -18 26 -27 2 -54 -5 -85 -21z"/>
                <path name="NH" d="M16850 9339 c0 -6 -6 -9 -14 -6 -8 3 -21 0 -31 -6 -21 -16 -29 -208 -9 -235 26 -33 16 -69 -31 -118 -44 -47 -44 -47 -39 -103 3 -31 1 -81 -5 -111 -18 -87 -21 -142 -10 -184 6 -21 11 -76 11 -122 1 -65 6 -88 19 -103 18 -19 20 -18 121 6 57 13 124 29 150 34 38 8 55 20 85 56 21 24 48 48 59 53 14 6 23 20 27 42 4 27 0 36 -19 51 -13 10 -24 23 -24 28 0 6 -13 22 -30 36 -16 13 -30 33 -30 42 0 29 -211 651 -221 651 -5 0 -9 -5 -9 -11z"/>
                <path name="VT" d="M16590 9229 c-19 -6 -120 -32 -225 -60 -104 -28 -190 -51 -192 -52 -5 -6 36 -169 46 -181 7 -8 16 -56 20 -108 5 -51 16 -110 25 -130 9 -21 16 -54 16 -74 0 -29 3 -34 13 -25 24 19 42 -17 65 -124 12 -55 24 -113 26 -129 3 -16 7 -31 10 -34 5 -4 154 21 199 34 17 5 17 7 2 24 -10 11 -15 33 -14 56 1 22 -4 77 -11 124 -15 98 -14 154 2 183 6 12 11 67 12 123 1 99 2 103 29 124 15 12 34 35 43 52 15 28 14 34 -1 69 -10 21 -15 48 -12 60 7 24 -2 80 -12 78 -3 0 -22 -5 -41 -10z"/>
                <path name="NY" d="M15969 9035 c-42 -13 -121 -31 -175 -41 -95 -18 -100 -21 -155 -72 -58 -53 -139 -175 -139 -210 0 -10 -25 -46 -55 -79 -56 -63 -66 -87 -40 -97 8 -3 15 -1 15 4 0 6 5 10 10 10 6 0 10 -7 10 -16 0 -8 5 -12 10 -9 15 9 12 -12 -4 -28 -13 -12 -13 -20 -1 -53 19 -54 18 -83 -2 -91 -10 -3 -46 -34 -80 -69 -57 -59 -65 -64 -105 -64 -24 0 -61 -9 -84 -19 -35 -16 -45 -17 -71 -6 -53 22 -185 3 -282 -41 -81 -37 -82 -38 -75 -68 9 -41 12 -46 34 -46 11 0 19 -7 18 -17 0 -10 6 -32 13 -50 12 -29 11 -35 -8 -55 -11 -13 -24 -31 -29 -40 -5 -9 -42 -53 -82 -97 l-72 -80 9 -41 c5 -23 11 -44 14 -46 9 -9 620 110 1005 196 95 22 179 37 186 34 8 -3 17 -12 20 -20 3 -8 15 -14 26 -14 16 0 27 -14 45 -54 25 -55 47 -76 84 -76 11 0 26 -6 33 -13 7 -6 69 -30 137 -52 l123 -40 -5 -42 c-5 -48 -4 -50 21 -25 28 29 46 90 31 108 -10 12 -8 19 11 39 21 23 22 28 11 62 -28 89 -54 269 -61 423 -6 123 -15 195 -35 280 -28 120 -47 159 -72 139 -10 -9 -13 -4 -13 29 0 21 -9 59 -19 83 -14 31 -19 66 -18 120 0 64 -3 81 -21 104 -13 16 -22 42 -22 61 0 18 -5 36 -10 39 -6 4 -10 14 -9 23 5 50 -7 52 -122 17z"/>
                <path name="WI" d="M11049 8938 c-98 -51 -179 -71 -194 -49 -4 8 -15 3 -32 -15 -24 -27 -25 -31 -18 -116 3 -48 4 -96 0 -107 -3 -11 -26 -31 -50 -45 -39 -24 -95 -99 -95 -129 0 -6 16 -25 35 -43 34 -31 35 -32 21 -66 -10 -22 -14 -65 -12 -130 l2 -97 38 -31 c22 -16 47 -30 56 -30 10 0 23 -7 31 -16 7 -9 31 -25 53 -36 23 -10 55 -38 71 -61 18 -24 49 -51 75 -63 60 -29 87 -64 95 -121 11 -79 26 -126 43 -139 14 -11 15 -17 5 -44 -9 -25 -9 -43 3 -88 21 -81 37 -101 85 -108 29 -5 44 -13 51 -30 9 -18 19 -24 45 -24 65 0 379 21 539 35 89 8 169 15 178 15 13 0 16 11 16 60 0 33 -4 68 -9 78 -36 67 -43 139 -22 237 7 33 12 89 11 124 -1 62 14 121 31 121 5 0 7 24 3 53 -4 37 0 69 14 113 17 54 17 64 5 88 -7 14 -16 26 -19 26 -14 0 -64 -43 -64 -54 0 -18 -53 -85 -67 -86 -18 0 -16 16 8 87 15 42 29 65 46 72 27 13 32 55 6 69 -12 7 -15 18 -10 47 6 36 5 37 -20 32 -25 -5 -25 -4 -19 42 7 58 -9 92 -51 104 -20 6 -33 18 -37 32 -7 29 -18 33 -113 40 -43 4 -98 15 -123 25 -25 10 -100 28 -168 41 -111 21 -125 25 -137 48 -20 40 -129 86 -174 74 -22 -6 -23 -4 -17 28 13 62 12 83 -4 85 -8 1 -58 -21 -111 -48z"/>
                <path name="MI" d="M12904 8754 c-36 -38 -43 -74 -19 -94 20 -17 19 -30 -4 -30 -10 0 -31 -10 -46 -22 -26 -20 -27 -25 -21 -77 3 -31 2 -69 -3 -86 l-9 -30 -1 28 c-1 33 -21 36 -21 3 0 -14 -4 -27 -9 -30 -5 -3 -7 26 -5 67 l4 72 -21 -25 c-12 -14 -26 -37 -31 -52 -6 -16 -18 -28 -31 -30 -15 -2 -26 -14 -32 -35 -6 -17 -18 -40 -27 -50 -13 -14 -16 -33 -13 -83 3 -54 -1 -75 -22 -122 -25 -56 -25 -60 -11 -111 13 -45 13 -55 0 -77 -14 -24 -12 -31 22 -98 20 -39 41 -72 46 -72 6 0 9 -3 8 -7 -1 -5 6 -33 17 -63 26 -74 26 -228 1 -285 -10 -22 -26 -64 -37 -93 -10 -29 -28 -66 -39 -82 l-21 -30 24 0 c13 0 131 13 262 30 171 21 242 26 252 19 9 -8 49 -5 140 10 240 40 227 35 261 105 16 34 32 83 35 110 4 39 11 54 31 69 17 12 26 28 26 46 0 31 27 91 40 91 5 0 12 -9 15 -20 3 -11 10 -20 15 -20 26 0 33 163 9 205 -10 17 -23 53 -30 80 -6 28 -15 55 -20 60 -4 6 -13 33 -20 60 -16 66 -53 123 -84 131 -27 7 -34 4 -80 -26 -16 -11 -36 -23 -42 -26 -7 -3 -13 -15 -13 -26 0 -11 -12 -40 -27 -64 -30 -47 -54 -54 -91 -28 -33 23 -28 93 8 111 34 17 50 41 50 79 0 23 7 36 26 48 24 17 25 20 20 101 -4 84 -13 111 -40 135 -21 17 -20 40 2 56 16 12 16 14 -4 36 -12 13 -23 29 -26 37 -3 12 -136 61 -167 61 -7 0 -26 11 -43 25 -17 15 -42 25 -61 25 -18 1 -43 7 -57 15 -37 21 -49 18 -86 -21z"/>
                <path name="SD" d="M7056 8458 c-4 -62 -13 -167 -21 -233 -19 -153 -59 -734 -52 -741 14 -14 625 -49 1137 -65 340 -10 355 -12 380 -32 14 -12 45 -31 68 -41 37 -17 44 -17 60 -4 25 21 175 24 192 3 7 -8 21 -15 31 -15 10 0 21 -4 24 -10 3 -5 14 -10 24 -10 10 0 36 -18 57 -40 22 -22 44 -40 51 -40 14 0 5 39 -15 63 -14 16 -14 22 0 65 26 75 32 114 18 122 -18 11 -22 110 -4 110 12 0 14 56 14 338 0 316 -1 340 -18 355 -10 10 -23 17 -29 17 -6 0 -22 18 -37 40 l-26 39 35 35 c19 20 35 40 35 45 0 5 2 16 5 24 5 12 -55 15 -402 21 -520 8 -1251 39 -1464 62 l-57 6 -6 -114z"/>
                <path name="WY" d="M5032 8411 c-8 -5 -23 -69 -38 -167 -24 -163 -182 -1243 -187 -1279 -2 -18 13 -21 198 -47 722 -99 1732 -200 1740 -174 2 6 13 155 25 331 12 176 34 504 50 730 16 225 28 411 26 412 -1 2 -88 10 -192 18 -482 39 -1264 128 -1579 180 -16 2 -36 1 -43 -4z"/>
                <path name="MA" d="M17190 8361 l-42 -50 -151 -35 c-84 -20 -197 -45 -252 -57 -55 -12 -103 -26 -107 -33 -4 -6 -8 -66 -8 -133 0 -92 3 -123 13 -123 29 0 219 41 296 65 47 14 96 25 111 25 14 0 50 7 80 16 53 16 53 16 76 -10 13 -14 24 -28 24 -32 0 -3 14 -19 30 -34 17 -15 30 -37 30 -48 0 -30 17 -36 32 -12 7 11 18 20 25 20 6 0 14 8 17 18 4 11 17 29 31 42 26 24 24 26 40 -25 3 -12 9 -13 30 -3 14 6 25 16 25 22 1 6 28 23 60 38 54 24 60 30 60 57 0 17 -11 42 -26 60 -27 33 -62 56 -70 48 -7 -6 44 -57 56 -57 6 0 10 -9 10 -19 0 -24 -58 -74 -77 -67 -8 4 -21 6 -29 6 -8 0 -19 11 -25 24 -7 14 -22 27 -36 31 -18 4 -23 10 -18 24 9 28 -49 74 -85 66 -18 -4 -31 -1 -40 10 -9 11 -9 15 -1 15 7 0 11 6 10 13 -4 20 17 61 45 86 34 32 33 42 -4 35 -26 -6 -31 -3 -41 22 -7 16 -12 32 -11 37 1 4 -7 7 -17 7 -11 0 -38 -21 -61 -49z"/>
                <path name="RI" d="M17086 7974 c-22 -8 -41 -16 -43 -17 -1 -2 10 -49 26 -105 16 -56 27 -110 24 -122 -7 -27 9 -25 57 6 43 29 50 56 30 110 -9 21 -8 31 4 42 13 13 11 20 -15 59 -33 48 -30 47 -83 27z"/>
                <path name="CT" d="M16865 7894 c-49 -14 -141 -36 -203 -50 -63 -13 -117 -26 -121 -29 -10 -5 35 -252 51 -283 10 -19 8 -26 -10 -45 -26 -27 -27 -40 -8 -56 11 -9 24 -3 62 30 27 23 51 46 52 50 2 5 7 7 12 4 5 -3 17 6 28 20 11 14 27 25 35 25 9 0 18 4 21 8 3 5 30 15 61 22 30 7 55 17 55 22 0 4 7 8 15 8 8 0 32 9 52 20 21 11 46 20 55 20 14 0 18 8 17 38 -1 56 -51 216 -69 219 -8 1 -55 -10 -105 -23z"/>
                <path name="CA" d="M825 7708 c-5 -18 -7 -63 -6 -100 3 -59 -1 -76 -28 -128 -17 -32 -31 -66 -31 -73 0 -28 -41 -106 -58 -111 -26 -9 -64 -71 -73 -122 -7 -39 -6 -51 11 -74 32 -45 70 -156 70 -206 0 -25 -9 -62 -20 -84 -14 -28 -20 -59 -20 -108 0 -37 -5 -73 -11 -79 -7 -7 -2 -27 19 -69 16 -33 33 -70 37 -84 4 -14 18 -39 31 -57 13 -17 24 -39 24 -48 0 -9 7 -29 15 -45 14 -27 14 -33 0 -60 -19 -36 -19 -40 0 -40 8 0 19 -9 25 -20 6 -10 25 -36 44 -56 32 -35 33 -38 19 -65 -9 -18 -16 -67 -17 -125 -3 -93 -2 -98 28 -142 22 -34 39 -48 58 -50 22 -3 29 -10 34 -38 8 -42 -8 -77 -42 -93 -21 -9 -24 -17 -24 -66 0 -45 5 -63 25 -89 14 -18 25 -40 25 -49 0 -8 6 -22 14 -29 7 -8 16 -27 19 -43 9 -49 38 -119 52 -128 7 -4 16 -20 20 -36 3 -16 17 -39 31 -51 24 -24 32 -50 14 -50 -5 0 -10 -9 -10 -19 0 -18 6 -26 45 -60 10 -8 14 -20 9 -30 -3 -9 -10 -32 -15 -51 -4 -19 -13 -56 -19 -82 -11 -44 -10 -48 15 -76 19 -22 41 -33 83 -41 31 -6 75 -23 97 -36 22 -14 50 -25 62 -25 32 0 103 -66 103 -96 0 -34 80 -90 148 -104 57 -13 74 -34 70 -89 -3 -38 9 -52 37 -45 19 5 30 0 47 -21 13 -15 32 -37 43 -49 123 -135 158 -227 132 -349 -6 -28 -5 -37 5 -35 7 2 13 -8 13 -24 1 -15 4 -31 9 -35 4 -4 184 -26 401 -48 l393 -40 22 32 c25 37 20 69 -15 85 -20 9 -22 16 -19 64 2 46 8 59 37 88 34 33 67 108 67 150 0 26 43 71 94 99 22 12 41 27 43 34 2 6 -9 26 -25 45 -18 20 -32 50 -37 78 -4 25 -14 57 -21 72 -8 15 -14 40 -14 57 0 31 -115 203 -857 1284 l-369 539 128 526 c70 290 129 534 131 543 4 14 -35 26 -222 74 -124 32 -371 98 -548 146 -177 49 -326 89 -331 89 -5 0 -13 -15 -17 -32z"/>
                <path name="PA" d="M15770 7659 c-201 -49 -996 -209 -1042 -209 -12 0 -19 11 -24 38 -4 20 -8 40 -11 44 -2 4 -31 -14 -64 -40 -33 -26 -73 -56 -90 -67 -26 -18 -29 -25 -26 -60 7 -70 130 -774 138 -786 8 -14 483 72 979 177 352 74 340 71 340 88 0 22 37 48 63 44 25 -3 97 44 97 64 0 6 18 30 40 54 22 24 40 47 40 51 0 5 -15 18 -34 31 -48 33 -121 103 -129 125 -4 10 0 31 8 46 12 25 12 31 -2 50 -13 19 -13 25 -1 39 18 22 38 68 38 89 0 9 8 25 17 35 20 22 12 31 -43 46 -35 10 -43 19 -65 64 -13 29 -35 58 -47 64 -13 7 -29 17 -35 23 -15 15 -58 12 -147 -10z"/>
                <path name="IA" d="M10315 7529 c-195 -12 -776 -29 -979 -29 -166 0 -178 -1 -170 -17 4 -10 8 -34 8 -54 1 -20 7 -43 14 -51 14 -17 11 -43 -16 -120 -15 -44 -14 -49 1 -66 9 -10 17 -28 17 -39 0 -12 7 -23 15 -27 8 -3 15 -14 15 -24 0 -25 39 -144 53 -161 19 -22 37 -83 37 -124 0 -23 7 -46 19 -58 23 -24 42 -115 46 -219 5 -128 -15 -120 295 -120 264 0 466 9 715 31 l130 12 44 -39 c53 -48 66 -49 64 -6 -1 28 5 37 38 58 30 18 39 31 39 52 0 15 9 38 20 52 26 33 25 49 -5 90 -37 51 -22 109 28 110 23 0 106 37 130 58 9 8 17 25 17 36 0 12 9 32 20 46 13 17 20 41 20 72 0 42 -3 49 -40 78 -22 17 -40 37 -40 44 0 7 -13 22 -30 34 -16 13 -36 38 -44 56 -12 28 -21 35 -54 41 -45 7 -53 14 -69 65 -21 62 -25 107 -13 129 9 18 7 27 -14 52 -14 17 -26 35 -26 40 0 10 -95 10 -285 -2z"/>
                <path name="NJ" d="M16326 7428 c-9 -12 -16 -32 -16 -44 0 -12 -11 -38 -25 -58 -23 -34 -24 -38 -9 -61 12 -18 13 -28 5 -44 -6 -11 -11 -29 -11 -41 0 -22 64 -89 124 -130 20 -14 36 -29 36 -34 0 -5 -16 -26 -35 -47 -19 -22 -35 -48 -35 -59 0 -12 -12 -26 -30 -35 -40 -21 -61 -55 -63 -103 -1 -48 10 -64 68 -91 24 -11 46 -25 50 -31 3 -5 26 -10 51 -10 l44 0 0 -41 c0 -32 3 -40 16 -37 19 3 55 88 56 131 1 15 8 32 16 36 15 8 22 27 24 61 1 8 4 17 7 20 17 14 41 78 35 93 -3 10 -1 24 5 31 9 10 10 44 5 115 -7 110 -12 116 -74 109 -21 -3 -25 1 -28 28 -2 22 4 40 22 60 14 17 27 50 31 76 l7 46 -124 41 c-67 22 -126 41 -130 41 -4 0 -14 -10 -22 -22z"/>
                <path name="NV" d="M2211 7313 c-5 -21 -65 -266 -132 -544 l-122 -506 445 -649 c244 -357 521 -761 614 -899 137 -202 170 -245 172 -225 2 14 10 32 17 40 9 10 13 46 14 110 1 169 7 231 22 241 26 18 81 1 112 -33 l30 -32 27 33 c15 18 30 47 33 64 3 18 87 487 186 1042 99 556 182 1021 183 1035 3 23 -1 25 -122 47 -383 71 -895 179 -1234 259 -126 30 -230 54 -232 54 -2 0 -8 -17 -13 -37z"/>
                <path name="NE" d="M7040 7254 c0 -5 -11 -171 -25 -369 -14 -197 -22 -362 -17 -366 4 -4 106 -12 227 -19 121 -6 240 -15 265 -18 l45 -8 -2 -104 c-2 -58 -5 -139 -9 -181 l-5 -77 83 -6 c271 -22 1798 -49 1798 -32 0 19 -43 105 -55 110 -17 6 -65 101 -65 127 0 10 -5 19 -11 19 -5 0 -10 21 -9 48 0 59 -6 132 -13 152 -3 8 -5 22 -6 30 -1 37 -8 56 -28 76 -18 16 -23 33 -23 69 0 33 -10 69 -33 119 -39 83 -57 134 -57 163 0 14 -8 23 -25 27 -14 4 -32 17 -41 31 -9 14 -22 25 -29 25 -7 0 -18 7 -25 15 -7 8 -27 17 -45 21 -19 3 -41 14 -51 25 -14 16 -26 17 -98 12 -44 -3 -90 -12 -100 -19 -17 -12 -26 -10 -65 13 -26 14 -55 34 -67 44 -18 17 -38 19 -160 19 -237 0 -881 29 -1261 56 -54 4 -93 3 -93 -2z"/>
                <path name="OH" d="M13875 7202 c-48 -28 -106 -73 -146 -114 -60 -63 -70 -69 -121 -78 -31 -5 -75 -21 -99 -35 -40 -26 -44 -26 -83 -14 -23 7 -46 20 -52 28 -10 13 -14 13 -28 2 -12 -10 -19 -11 -30 -2 -8 7 -43 20 -78 30 -62 18 -67 18 -157 1 -52 -10 -131 -24 -177 -31 -96 -14 -93 -9 -74 -124 5 -33 27 -220 50 -415 22 -195 43 -374 46 -396 l6 -41 51 2 c65 3 90 -8 122 -56 23 -35 29 -39 69 -39 28 0 52 -7 69 -20 30 -24 53 -26 61 -5 7 19 36 19 61 1 24 -18 54 -9 87 26 32 35 42 35 56 3 7 -14 20 -28 29 -32 10 -3 30 -17 45 -30 24 -23 29 -24 54 -11 16 7 34 24 40 36 6 13 16 28 22 34 6 6 7 21 1 40 -5 19 -4 38 1 49 6 10 10 26 10 37 0 11 7 26 16 33 14 11 18 10 33 -10 17 -22 18 -22 26 -5 4 11 9 39 10 62 2 24 11 53 21 63 9 11 22 29 29 42 7 14 19 21 34 19 30 -3 51 13 97 73 36 47 38 56 47 150 4 55 12 114 16 130 5 18 2 49 -6 78 -12 42 -12 51 0 65 13 15 9 46 -27 254 -22 130 -43 239 -46 242 -3 3 -41 -16 -85 -42z"/>
                <path name="IL" d="M11560 7189 c-71 -8 -526 -39 -580 -39 -24 -1 -24 -1 13 -35 20 -20 37 -42 37 -49 0 -8 16 -24 35 -36 19 -12 38 -33 41 -46 8 -32 -2 -83 -20 -103 -8 -9 -16 -29 -18 -46 -2 -24 -12 -35 -53 -56 -27 -15 -67 -30 -88 -34 -57 -10 -78 -73 -37 -110 24 -21 26 -62 5 -102 -8 -15 -16 -39 -19 -53 -4 -17 -18 -32 -41 -43 -33 -16 -36 -20 -30 -47 4 -19 1 -37 -11 -55 -11 -17 -17 -45 -17 -74 1 -60 44 -165 80 -195 15 -13 44 -39 64 -57 20 -19 48 -42 62 -51 17 -12 29 -34 37 -70 7 -29 17 -61 22 -70 10 -21 44 -24 51 -5 7 18 55 11 85 -11 19 -15 21 -22 13 -47 -5 -17 -19 -60 -30 -96 -12 -37 -21 -73 -21 -82 0 -13 26 -39 118 -117 16 -14 36 -24 44 -22 22 4 104 -78 113 -113 4 -16 8 -51 9 -76 2 -58 41 -115 84 -121 23 -3 28 -1 25 12 -3 10 6 30 20 46 24 28 25 28 68 14 24 -7 56 -19 70 -27 23 -11 29 -10 40 3 10 12 10 22 1 48 -19 53 -15 62 37 85 59 25 66 34 49 60 -10 16 -9 25 1 43 7 14 11 35 10 49 -7 58 13 164 36 189 12 14 37 55 54 92 26 56 30 74 25 110 -4 24 -15 55 -25 69 -18 26 -20 73 -3 113 4 12 -10 203 -34 450 -38 391 -44 436 -67 481 -13 28 -25 58 -25 68 0 9 -4 17 -10 17 -18 0 -40 58 -40 105 l0 45 -52 -1 c-29 -1 -87 -5 -128 -10z"/>
                <path name="UT" d="M3995 6959 c-3 -13 -75 -415 -160 -894 -85 -478 -158 -882 -161 -896 -6 -31 -36 -23 356 -89 411 -69 1079 -164 1087 -156 4 4 177 1359 185 1441 l3 40 -268 37 c-148 20 -271 39 -274 42 -3 3 6 85 21 182 14 97 25 178 23 180 -2 2 -64 13 -138 24 -141 22 -582 95 -636 106 -28 5 -33 3 -38 -17z"/>
                <path name="IN" d="M12460 6930 c-118 -16 -233 -29 -255 -29 -27 -1 -57 -13 -95 -36 -61 -39 -73 -41 -114 -20 l-28 15 6 -43 c19 -139 77 -829 71 -844 -16 -40 -15 -91 4 -114 10 -13 21 -43 25 -67 5 -36 1 -54 -25 -110 -17 -37 -41 -77 -53 -90 -15 -17 -24 -48 -33 -105 -6 -45 -9 -85 -7 -89 11 -17 44 -8 44 11 0 15 7 19 35 18 19 -1 35 -6 35 -11 0 -6 6 -3 14 6 25 34 58 38 110 13 42 -20 48 -21 53 -6 3 9 17 26 31 38 l25 21 35 -19 c19 -11 35 -19 36 -17 0 2 7 13 14 25 6 13 12 29 12 36 0 7 11 23 24 36 l23 22 14 -22 c11 -15 26 -22 53 -23 43 -1 52 8 61 65 4 25 12 38 25 42 11 3 27 20 34 39 8 18 24 42 36 53 17 15 20 26 15 52 -5 29 -3 33 19 39 14 3 30 3 35 -1 6 -3 24 3 40 14 16 12 36 21 45 21 22 0 31 27 16 45 -6 8 -9 19 -5 25 3 5 3 16 -2 22 -4 7 -6 24 -5 38 3 25 -38 388 -84 755 -19 154 -29 203 -41 213 -9 6 -19 11 -22 11 -3 -1 -103 -14 -221 -29z"/>
                <path name="DE" d="M16140 6850 c-26 -26 -26 -39 11 -161 17 -57 43 -155 59 -217 15 -62 31 -116 34 -119 3 -4 45 3 93 14 95 21 110 36 73 71 -14 13 -20 29 -18 48 2 21 -1 29 -14 29 -15 0 -39 19 -80 62 -9 10 -20 32 -24 48 -4 17 -22 47 -40 68 -19 20 -34 46 -34 56 0 11 -5 23 -10 26 -6 4 -7 13 -1 23 4 9 11 29 15 45 6 24 4 27 -19 27 -14 0 -34 -9 -45 -20z"/>
                <path name="MD" d="M15825 6689 c-121 -27 -339 -71 -485 -99 -146 -28 -270 -52 -276 -54 -13 -5 14 -186 28 -186 4 0 27 25 51 55 23 30 50 55 60 55 10 0 27 16 39 36 15 25 24 32 31 25 6 -6 25 -11 43 -11 23 0 33 5 37 20 3 11 13 23 24 27 10 4 23 14 29 22 10 13 16 13 38 3 15 -7 38 -12 51 -12 16 0 25 -6 25 -15 0 -8 3 -15 8 -15 4 0 13 -13 20 -30 11 -23 20 -30 42 -30 33 0 60 -23 60 -50 0 -20 19 -30 55 -30 13 0 27 -5 30 -11 4 -6 23 -9 44 -7 l36 3 -3 -40 c-2 -22 -14 -61 -27 -88 -20 -39 -22 -52 -13 -72 14 -32 22 -31 37 2 l13 28 29 -35 c21 -26 31 -32 37 -22 7 10 11 10 22 -3 7 -8 24 -15 39 -15 15 0 31 -4 36 -9 12 -10 75 -23 75 -15 0 13 -35 64 -43 64 -5 0 -7 9 -4 20 3 11 -2 25 -11 32 -8 7 -22 29 -30 48 -16 38 -32 160 -21 160 17 0 -6 49 -29 61 -27 13 -27 13 -4 17 16 2 25 12 29 33 3 16 9 26 14 23 5 -3 9 5 10 18 0 13 3 17 6 11 3 -10 10 -10 25 -2 14 8 18 17 14 34 -4 15 -1 25 9 29 8 3 15 1 15 -5 0 -6 5 -7 10 -4 14 9 12 -9 -2 -23 -10 -10 -10 -15 2 -22 12 -8 11 -10 -7 -10 -27 0 -43 -27 -46 -77 -2 -31 1 -38 16 -37 26 2 21 -25 -8 -38 -15 -6 -25 -20 -25 -31 0 -18 1 -19 18 -4 15 13 20 14 36 2 18 -14 18 -15 -8 -26 -14 -7 -26 -20 -26 -30 0 -24 16 -33 24 -12 6 14 9 14 29 -4 12 -11 29 -23 37 -26 8 -3 1 -6 -17 -6 -28 -1 -61 -21 -34 -21 5 0 11 -16 13 -35 2 -20 5 -34 8 -33 3 2 19 -6 35 -16 20 -13 30 -15 33 -7 2 6 8 9 13 5 5 -3 9 1 9 8 0 9 3 9 10 -2 5 -8 6 -26 3 -39 -5 -19 -3 -23 9 -19 27 11 42 -6 28 -32 -15 -28 -9 -33 25 -20 22 8 26 8 22 -4 -3 -7 0 -19 6 -25 8 -8 7 -14 -5 -23 -29 -23 -50 -207 -27 -234 12 -14 14 -14 26 2 7 10 13 36 14 58 1 50 9 71 29 71 11 0 17 16 22 60 17 146 36 218 62 236 10 8 -1 79 -13 79 -5 0 -41 -7 -81 -16 -76 -18 -89 -14 -90 27 0 15 -52 212 -91 342 -15 50 -24 67 -37 66 -9 -1 -116 -23 -237 -50z"/>
                <path name="WV" d="M14161 6690 c-12 -7 -13 -15 -2 -47 15 -47 15 -49 -2 -205 -11 -103 -18 -131 -35 -150 -12 -13 -33 -38 -48 -56 -22 -27 -32 -33 -54 -28 -22 4 -30 0 -41 -22 -8 -15 -22 -34 -32 -42 -11 -10 -19 -33 -21 -68 -4 -64 -10 -71 -37 -46 -20 18 -21 18 -35 -1 -8 -10 -14 -28 -14 -39 0 -12 -4 -27 -9 -35 -5 -8 -5 -27 0 -44 7 -24 5 -33 -6 -40 -8 -4 -15 -17 -15 -28 0 -12 -12 -25 -33 -35 -32 -15 -34 -19 -33 -68 1 -45 7 -58 51 -116 66 -86 103 -120 135 -126 14 -3 30 -15 35 -27 13 -28 84 -76 113 -77 13 0 34 11 47 24 16 16 31 22 49 19 38 -8 116 25 116 50 0 14 5 18 19 14 10 -2 29 4 42 14 13 10 31 19 39 19 24 0 62 31 56 45 -2 7 1 18 7 24 8 8 8 14 0 22 -14 14 -4 49 31 115 14 27 26 56 26 65 0 9 11 42 25 73 14 31 25 67 25 81 0 33 13 38 40 15 26 -23 63 -26 77 -7 6 6 13 26 17 42 20 87 28 105 43 105 23 0 91 75 107 118 8 20 17 57 21 81 3 24 8 48 11 53 3 5 35 -7 71 -27 72 -39 93 -36 93 14 0 34 -21 81 -37 81 -7 0 -10 7 -7 15 5 11 -1 15 -19 15 -15 0 -38 5 -51 12 -21 9 -29 8 -44 -5 -10 -10 -24 -17 -31 -17 -6 0 -17 -11 -23 -25 -8 -19 -19 -25 -43 -25 -17 0 -36 5 -42 11 -8 8 -16 1 -28 -25 -13 -26 -24 -36 -40 -36 -14 0 -26 -7 -29 -17 -3 -10 -23 -38 -45 -62 l-39 -43 -12 85 c-7 47 -16 90 -19 96 -5 7 -53 2 -145 -15 -76 -14 -139 -24 -141 -22 -2 2 -16 73 -31 158 -14 85 -29 158 -33 162 -3 4 -13 3 -20 -2z"/>
                <path name="CO" d="M5495 6398 c-9 -55 -183 -1443 -181 -1445 4 -5 417 -53 666 -78 455 -46 1375 -115 1384 -104 9 11 74 1475 66 1483 -6 6 -137 18 -293 28 -449 27 -923 70 -1384 123 -269 31 -251 32 -258 -7z"/>
                <path name="VA" d="M15304 6323 c-9 -71 -38 -143 -58 -143 -9 0 -18 -11 -22 -24 -4 -17 -14 -26 -32 -28 -24 -3 -29 -11 -47 -78 -20 -73 -21 -75 -54 -78 -23 -2 -37 2 -43 12 -5 9 -17 16 -27 16 -14 0 -20 -9 -24 -37 -5 -49 -42 -153 -78 -223 -21 -42 -28 -69 -27 -109 1 -45 -2 -56 -23 -72 -13 -10 -29 -17 -36 -14 -6 2 -23 -5 -38 -17 -14 -11 -32 -17 -40 -14 -8 3 -17 -3 -20 -16 -9 -27 -86 -61 -115 -50 -17 6 -29 2 -51 -19 -37 -35 -69 -29 -125 26 l-44 41 -40 -47 c-22 -27 -60 -62 -85 -80 -24 -17 -49 -43 -55 -58 -29 -71 -97 -140 -174 -176 -78 -37 -81 -48 -10 -40 102 11 397 56 434 65 20 6 74 12 120 15 122 7 260 28 655 100 425 78 853 165 938 191 9 3 17 15 17 27 1 20 2 21 14 5 25 -33 26 -18 3 20 -13 20 -27 47 -31 60 -6 19 -14 22 -57 22 -36 0 -49 -4 -49 -14 0 -31 -43 -21 -82 17 -55 54 -50 60 14 15 28 -20 53 -16 63 10 7 18 -35 62 -61 62 -13 0 -14 3 -4 15 7 8 10 22 6 30 -7 18 15 20 32 3 9 -9 12 -7 12 9 0 34 -11 53 -30 53 -10 0 -20 7 -24 15 -3 8 -14 15 -24 15 -10 0 -27 10 -38 21 l-19 21 37 -15 c44 -19 51 -13 54 50 3 40 1 42 -31 53 -19 6 -46 21 -61 33 -19 15 -39 20 -65 18 -41 -3 -89 22 -89 45 0 17 -24 18 -49 2 -33 -21 -46 -5 -43 51 2 28 8 49 12 46 16 -10 41 45 35 76 -7 31 -58 64 -120 78 -19 4 -31 14 -34 26 -5 33 -22 45 -57 45 -29 0 -34 -3 -34 -24 0 -39 -17 -40 -80 -7 -81 44 -87 42 -96 -26z"/>
                <path name="MO" d="M10455 6159 c-129 -17 -568 -39 -794 -39 -131 0 -240 -3 -244 -6 -7 -8 38 -98 58 -114 9 -7 25 -32 35 -56 22 -47 98 -110 114 -94 6 6 16 4 28 -7 21 -19 24 -43 5 -43 -7 0 -21 -15 -31 -34 -19 -36 -14 -59 19 -86 8 -7 23 -28 31 -46 9 -19 28 -40 43 -47 l26 -12 7 -260 c4 -143 10 -365 14 -493 l6 -234 172 7 c315 11 589 25 858 41 258 17 269 17 288 -1 26 -24 26 -70 -1 -89 -31 -22 -50 -52 -43 -71 6 -14 16 -16 68 -10 33 3 73 8 87 11 29 6 53 46 44 74 -3 10 -1 21 5 25 5 3 10 15 10 26 0 10 4 19 8 19 5 0 7 15 5 33 -2 17 0 26 3 20 9 -20 20 -15 33 13 8 19 17 25 31 21 20 -5 37 23 25 42 -3 5 -1 12 5 16 5 3 10 26 10 50 0 46 -22 71 -53 60 -8 -4 -24 9 -41 35 -21 31 -25 48 -21 73 4 20 1 43 -9 62 -9 17 -16 38 -16 47 0 10 -9 22 -19 28 -11 5 -33 24 -50 41 -17 16 -35 28 -41 24 -5 -3 -17 1 -27 10 -10 9 -38 30 -63 48 -59 43 -70 74 -46 135 10 26 22 65 25 87 4 23 10 46 14 52 8 13 -18 30 -66 44 -23 7 -35 5 -49 -8 -14 -13 -20 -13 -33 -3 -8 7 -15 18 -15 24 0 7 -7 35 -15 63 -12 39 -24 56 -52 76 -70 47 -138 121 -161 174 -27 64 -37 129 -24 163 8 22 4 30 -41 72 -27 27 -52 47 -56 47 -3 -1 -33 -5 -66 -10z"/>
                <path name="KS" d="M7492 5409 c-13 -261 -25 -513 -29 -560 l-6 -87 94 -6 c373 -25 1482 -44 1852 -31 l228 7 -5 172 c-3 94 -9 273 -12 397 l-6 226 -30 18 c-17 9 -36 33 -44 51 -8 19 -18 34 -23 34 -5 0 -16 12 -26 26 -16 25 -16 28 1 60 10 19 24 34 31 34 18 0 16 35 -2 50 -8 7 -22 9 -31 6 -10 -4 -29 3 -48 18 l-32 24 -510 1 c-469 0 -927 10 -1250 27 l-130 7 -22 -474z"/>
                <path name="KY" d="M12955 5830 c-10 -11 -12 -20 -7 -24 6 -3 8 -15 5 -25 -3 -10 0 -22 6 -25 20 -13 11 -34 -16 -41 -16 -3 -36 -14 -45 -22 -10 -8 -25 -13 -33 -9 -9 3 -28 3 -42 0 -22 -6 -24 -10 -18 -40 5 -27 1 -39 -17 -57 -13 -13 -28 -36 -33 -53 -7 -18 -19 -30 -32 -32 -22 -3 -26 -16 -36 -92 -4 -31 -91 -24 -102 9 -3 11 -13 22 -21 25 -9 3 -12 2 -8 -5 3 -6 -3 -17 -14 -24 -10 -8 -22 -27 -25 -42 -12 -53 -22 -60 -54 -37 -24 17 -31 18 -52 8 -14 -7 -31 -24 -38 -37 l-12 -25 -40 20 c-44 22 -111 17 -111 -8 0 -8 -4 -14 -10 -14 -5 0 -10 4 -10 8 0 5 -16 8 -35 8 -29 -1 -35 -5 -35 -23 0 -14 -6 -23 -15 -23 -24 0 -48 -56 -35 -81 12 -22 -1 -49 -25 -49 -24 0 -75 -35 -75 -51 0 -9 7 -30 15 -45 11 -23 12 -31 2 -41 -9 -10 -26 -7 -80 12 l-68 25 -26 -26 c-22 -22 -24 -30 -18 -70 8 -58 -4 -156 -19 -151 -17 7 -46 -12 -46 -29 0 -13 7 -15 33 -11 17 3 106 11 197 18 91 6 169 15 174 20 5 4 4 21 -3 39 l-11 32 48 -6 c26 -4 110 0 187 9 77 8 192 20 255 26 63 5 158 14 210 19 52 6 154 15 225 20 72 6 154 15 184 20 30 6 76 10 101 10 36 0 67 11 134 45 110 57 165 109 197 187 6 15 32 43 58 62 42 31 131 126 131 140 0 3 -11 6 -24 6 -33 0 -74 36 -140 125 -48 62 -55 78 -50 104 8 38 -27 98 -62 107 -14 4 -31 19 -40 35 -8 16 -18 29 -21 29 -4 0 -21 -13 -38 -29 -35 -34 -61 -40 -93 -22 -23 13 -62 7 -62 -10 0 -17 -37 -9 -55 11 -13 15 -31 20 -65 20 -43 0 -48 3 -70 39 -26 42 -48 52 -117 56 -30 2 -47 -3 -58 -15z"/>
                <path name="NC" d="M16170 5364 c-334 -83 -1388 -274 -1513 -274 -48 0 -57 -11 -57 -70 0 -14 -9 -31 -20 -38 -11 -7 -28 -31 -37 -53 -13 -33 -20 -40 -36 -35 -27 7 -67 -16 -95 -54 -22 -29 -25 -30 -42 -15 -17 15 -19 14 -38 -9 -11 -15 -24 -26 -30 -26 -6 0 -13 -13 -17 -29 -4 -19 -14 -31 -30 -35 -13 -3 -48 -28 -78 -56 -31 -28 -64 -50 -77 -50 -45 0 -110 -50 -110 -85 0 -23 -22 -47 -52 -58 -14 -5 -18 -18 -18 -55 0 -46 2 -49 23 -45 12 2 92 14 178 27 98 15 172 32 197 45 23 12 47 21 55 21 8 0 22 9 32 20 10 11 23 20 29 20 6 0 23 7 39 15 15 7 91 21 170 29 78 9 163 18 189 21 27 3 49 1 53 -5 3 -5 17 -10 30 -10 25 0 55 -33 55 -62 0 -9 3 -19 8 -21 4 -3 72 6 152 19 80 13 155 24 168 24 14 0 100 -55 214 -136 l192 -136 49 16 c27 9 61 16 76 16 32 0 51 16 51 45 0 16 2 17 10 5 7 -11 10 -3 10 30 0 56 28 114 74 152 25 20 33 34 29 48 -4 16 -2 19 11 14 11 -4 22 5 36 29 12 20 29 36 38 36 38 1 52 5 52 12 0 5 14 6 32 2 27 -5 30 -4 25 11 -4 10 -3 15 3 11 6 -3 10 -2 10 3 0 6 15 9 34 7 30 -3 36 0 47 28 13 31 14 46 3 77 -5 13 -7 12 -15 -2 -10 -18 -30 -25 -28 -10 1 4 1 14 0 22 -1 12 -4 12 -12 -3 -15 -26 -89 -61 -102 -48 -8 8 -6 11 5 11 25 0 71 59 58 75 -8 9 -6 14 5 19 8 3 15 12 15 20 0 10 -20 19 -62 27 l-63 13 35 9 c19 5 38 13 41 19 4 7 13 6 27 -1 15 -8 22 -8 25 2 4 9 6 9 6 0 1 -9 17 -13 46 -13 45 0 46 1 69 51 13 28 33 57 43 64 25 18 19 86 -9 112 -15 13 -22 15 -25 6 -3 -7 -11 -13 -19 -13 -10 0 -14 -12 -14 -39 0 -22 -5 -43 -12 -47 -8 -5 -9 -2 -5 9 3 10 3 17 -2 17 -5 0 -8 17 -7 38 1 31 -3 38 -20 40 -12 2 -28 -3 -36 -11 -8 -8 -29 -17 -48 -20 -19 -3 -45 -8 -57 -12 -15 -5 -24 -2 -31 12 -9 17 -7 18 21 15 24 -3 38 3 56 22 14 14 31 26 38 26 8 0 12 4 9 9 -3 5 2 8 12 7 12 -1 17 6 16 22 -1 26 0 26 26 10 17 -11 22 -10 29 1 7 11 11 10 20 -5 8 -14 10 -15 10 -4 1 8 -8 26 -19 40 -11 14 -20 30 -20 36 0 7 -9 14 -21 17 -11 3 -23 15 -26 26 -6 24 -8 24 -83 5z"/>
                <path name="AZ" d="M3666 4969 c-3 -8 -16 -76 -29 -152 -19 -109 -29 -143 -48 -163 -27 -29 -45 -31 -52 -4 -3 11 -13 23 -24 26 -10 3 -28 11 -40 16 -17 8 -28 7 -48 -6 -21 -14 -25 -24 -24 -59 3 -92 -10 -278 -20 -291 -23 -28 -25 -103 -3 -154 12 -27 24 -67 28 -90 4 -24 16 -50 30 -63 34 -32 30 -44 -23 -74 -54 -29 -93 -78 -93 -118 0 -38 -37 -114 -68 -138 -18 -14 -27 -31 -28 -52 0 -18 -4 -42 -8 -55 -6 -18 -2 -25 23 -40 22 -12 31 -24 31 -42 -1 -38 -31 -69 -62 -63 -21 4 -29 -2 -48 -32 -19 -31 -21 -39 -9 -49 14 -13 430 -254 849 -491 l225 -128 270 -37 c312 -43 355 -49 356 -47 2 4 266 2092 265 2094 -1 1 -107 16 -236 33 -364 48 -1088 162 -1187 187 -14 3 -24 0 -27 -8z"/>
                <path name="TN" d="M14200 4956 c-25 -7 -119 -23 -210 -35 -91 -12 -205 -29 -255 -36 -137 -22 -344 -45 -401 -45 -28 0 -75 -4 -105 -10 -30 -5 -137 -16 -239 -25 -102 -8 -246 -22 -320 -30 -74 -8 -161 -15 -192 -15 l-57 0 6 -33 5 -33 -203 -19 c-112 -9 -212 -17 -223 -17 -14 1 -17 -5 -13 -24 2 -13 0 -27 -5 -30 -5 -3 -7 -12 -4 -20 3 -7 -3 -18 -12 -23 -13 -8 -14 -12 -5 -22 9 -9 9 -17 1 -33 -6 -11 -11 -33 -10 -48 0 -15 -3 -30 -8 -33 -5 -3 -7 -12 -4 -20 3 -8 -6 -21 -21 -31 -17 -11 -25 -24 -22 -35 3 -10 -3 -25 -13 -34 -10 -9 -16 -24 -13 -35 3 -13 0 -18 -13 -17 -11 1 -20 -6 -22 -17 -2 -10 0 -16 6 -12 5 3 12 -14 15 -40 4 -42 2 -49 -27 -75 -27 -25 -29 -28 -11 -29 45 0 534 41 590 50 33 5 148 16 255 25 176 14 615 62 780 85 36 5 84 10 108 10 l42 0 0 48 c0 45 2 49 32 63 25 11 35 23 41 52 11 44 37 65 99 79 29 6 58 23 88 52 25 24 59 50 75 57 21 10 31 22 33 42 2 15 9 27 16 27 8 0 20 10 28 22 13 20 18 21 32 9 20 -17 43 -8 57 23 13 27 56 49 85 44 14 -2 25 9 39 39 12 24 29 49 39 56 11 8 22 33 26 60 7 46 6 47 -19 46 -14 0 -46 -6 -71 -13z"/>
                <path name="NM" d="M5400 4586 c0 -2 -58 -467 -130 -1034 -71 -566 -130 -1036 -130 -1044 0 -12 26 -18 119 -28 66 -7 126 -10 135 -7 10 4 16 19 16 39 0 32 15 107 22 112 1 2 116 -9 253 -25 138 -15 252 -25 254 -23 2 2 -1 9 -6 16 -6 7 -13 25 -16 39 l-6 25 72 -8 c137 -15 782 -68 908 -74 85 -5 128 -3 133 4 3 5 13 109 21 229 9 120 22 292 30 383 8 91 26 359 40 595 14 237 30 439 35 450 5 11 10 58 12 105 l3 85 -110 7 c-465 32 -1002 81 -1395 128 -266 32 -260 32 -260 26z"/>
                <path name="SC" d="M14630 4444 c-128 -14 -211 -38 -236 -66 -10 -10 -23 -18 -31 -18 -8 0 -31 -9 -52 -20 -42 -21 -105 -108 -99 -137 4 -22 76 -65 128 -77 16 -4 38 -26 63 -63 53 -82 67 -97 130 -137 31 -20 61 -45 67 -56 6 -10 27 -27 47 -36 19 -10 45 -33 55 -51 11 -18 24 -33 29 -33 5 0 9 -5 9 -11 0 -15 38 -46 76 -63 33 -15 77 -81 88 -132 5 -21 17 -35 39 -46 31 -15 60 -58 71 -108 9 -38 18 -47 58 -54 34 -6 38 -5 44 19 3 14 9 24 12 21 3 -3 11 -1 18 5 11 9 10 16 -6 36 -23 30 -27 51 -6 34 11 -10 15 -8 19 6 4 15 5 15 6 2 3 -42 61 -27 61 16 0 17 -7 24 -32 29 -40 8 -30 18 22 21 38 2 95 33 145 78 16 15 17 21 7 37 -17 28 -14 49 4 25 14 -19 15 -19 49 16 18 20 33 44 32 55 -1 13 6 20 25 24 38 7 78 70 78 122 0 53 53 159 103 204 20 19 37 37 37 41 0 5 -89 70 -196 147 l-197 138 -136 -21 c-75 -12 -151 -24 -168 -27 -28 -5 -33 -3 -33 14 0 30 -39 74 -60 67 -10 -3 -21 -1 -25 5 -8 13 -100 11 -245 -6z"/>
                <path name="OK" d="M7617 4359 c-3 -51 -5 -95 -3 -97 5 -4 454 -30 656 -37 96 -3 186 -8 199 -11 l24 -5 -7 -277 c-4 -152 -9 -311 -12 -353 -6 -75 -6 -76 19 -83 14 -3 35 -20 47 -36 19 -26 27 -30 71 -30 27 0 49 5 49 10 0 6 11 3 25 -6 15 -10 25 -26 25 -40 0 -25 33 -46 56 -37 6 2 24 -3 40 -12 16 -8 42 -15 58 -15 16 0 38 -8 48 -17 17 -15 22 -15 46 -2 33 18 92 14 92 -7 0 -7 9 -19 20 -26 11 -7 20 -21 20 -31 0 -28 29 -32 60 -8 34 25 46 26 54 6 3 -8 12 -15 21 -15 8 0 15 -5 15 -11 0 -7 14 -8 39 -4 36 6 40 4 43 -16 5 -34 23 -33 39 3 19 43 47 59 60 35 9 -15 18 -17 50 -12 25 4 39 3 39 -4 0 -17 77 -52 97 -44 10 4 33 18 52 30 24 16 43 22 61 18 15 -3 40 1 59 11 27 13 38 14 52 5 26 -16 69 -14 75 4 9 22 26 18 73 -16 61 -44 101 -65 139 -72 l34 -7 -5 368 c-4 358 -5 371 -35 542 -18 101 -32 210 -32 256 l0 81 -857 6 c-783 5 -1232 18 -1524 43 l-76 6 -6 -93z"/>
                <path name="AR" d="M11245 4354 c-184 -13 -491 -28 -806 -40 l-175 -6 29 -162 c28 -154 29 -177 34 -531 4 -319 7 -372 20 -388 10 -11 24 -15 36 -11 10 3 34 3 53 -1 l34 -6 0 -100 0 -101 173 7 c94 4 287 13 427 21 140 8 263 14 273 14 11 0 17 8 17 25 0 14 5 25 11 25 7 0 9 12 5 33 -3 17 -9 47 -12 66 -2 18 -12 40 -20 48 -10 10 -12 19 -5 26 5 5 7 16 4 23 -3 8 1 14 11 14 19 0 21 16 4 23 -8 3 -5 6 6 6 15 1 17 8 14 40 -3 34 0 41 20 51 19 8 23 16 18 34 -6 24 5 41 63 101 29 30 42 70 28 91 -4 7 0 15 9 18 8 3 13 10 9 15 -3 5 -1 13 5 16 6 4 8 16 4 27 -3 12 -2 18 3 15 18 -11 55 24 49 46 -4 15 3 29 23 47 26 23 29 30 24 73 -3 26 -10 47 -14 47 -5 0 -9 5 -9 11 0 7 9 9 21 6 18 -5 20 -2 17 18 -3 14 2 28 13 36 12 9 17 20 13 36 -5 18 0 25 21 35 18 8 25 17 22 30 -3 10 -1 18 5 18 5 0 8 10 6 23 -3 20 -7 22 -63 18 -107 -7 -118 -6 -122 6 -3 7 12 29 31 49 40 42 47 81 18 107 -22 20 -80 20 -347 1z"/>
                <path name="TX" d="M7444 4069 c-3 -6 -19 -220 -35 -477 -15 -257 -35 -543 -43 -637 -8 -93 -20 -249 -26 -345 -6 -96 -13 -181 -16 -189 -4 -11 -26 -13 -122 -7 -138 8 -791 62 -907 75 -44 5 -82 8 -83 6 -2 -2 -1 -17 3 -34 4 -20 23 -44 51 -67 24 -20 44 -44 44 -53 1 -29 25 -62 64 -85 36 -21 69 -58 151 -166 18 -25 61 -65 94 -89 60 -43 101 -93 101 -124 0 -8 11 -35 25 -58 20 -35 24 -52 19 -85 -9 -64 61 -214 100 -214 6 0 33 -22 59 -49 29 -29 61 -51 79 -55 17 -3 37 -15 45 -26 8 -11 20 -20 28 -20 8 0 29 -13 47 -29 18 -15 50 -34 70 -42 l37 -13 43 45 c23 24 63 85 88 134 44 89 46 90 91 100 25 6 53 16 62 23 13 11 20 11 39 1 25 -14 140 -31 201 -30 33 0 41 -4 65 -39 15 -22 30 -39 33 -40 12 0 141 -130 164 -164 12 -18 25 -45 29 -60 6 -24 44 -107 73 -161 6 -11 17 -40 23 -65 8 -29 25 -56 51 -80 21 -19 39 -40 39 -46 0 -6 9 -19 20 -29 11 -10 22 -27 26 -39 12 -36 48 -77 80 -91 26 -11 33 -21 39 -54 4 -22 4 -49 0 -61 -4 -11 -2 -20 4 -20 6 0 11 -16 11 -36 0 -24 12 -56 34 -93 19 -31 38 -69 42 -86 3 -16 15 -49 26 -72 14 -33 24 -43 42 -43 37 0 86 -21 97 -41 6 -11 21 -19 37 -19 27 0 48 -10 94 -43 17 -11 57 -20 122 -26 92 -9 99 -12 137 -45 43 -40 54 -43 67 -21 4 9 20 19 35 23 15 4 26 11 24 17 -1 5 -5 9 -9 8 -5 -2 -8 2 -8 8 0 5 -5 7 -10 4 -6 -4 -10 -3 -9 2 3 13 -11 64 -31 113 -10 25 -21 65 -25 90 -3 25 -13 56 -22 69 -11 17 -12 26 -5 29 8 2 8 9 -1 23 -9 14 -9 22 -1 27 17 11 34 48 34 75 0 20 -4 24 -20 20 -27 -7 -70 5 -70 20 0 7 14 12 35 13 19 0 35 -4 35 -8 0 -5 9 -6 20 -3 15 5 20 2 21 -12 0 -10 6 1 13 23 7 23 28 67 46 98 36 64 36 89 -1 29 -19 -32 -23 -35 -27 -18 -2 11 -13 31 -23 44 -24 30 -10 53 21 33 11 -6 22 -12 24 -12 6 0 66 86 66 94 0 14 -28 5 -34 -11 -5 -11 -10 -13 -17 -6 -12 12 -2 43 15 44 6 0 21 2 33 3 29 3 36 -18 18 -55 -18 -35 -11 -38 16 -6 20 24 25 47 9 47 -5 0 -1 9 11 21 12 12 20 32 19 47 -3 44 -1 46 24 23 15 -14 30 -20 38 -15 7 4 2 -5 -11 -19 -14 -15 -30 -27 -38 -27 -7 0 -13 -7 -13 -15 0 -20 0 -20 69 26 68 45 72 61 27 106 -51 51 -59 88 -8 41 21 -20 25 -21 35 -8 16 20 52 23 67 5 9 -11 17 -12 31 -4 13 6 19 6 19 0 0 -6 -12 -17 -27 -25 -16 -8 -23 -15 -18 -15 6 0 39 16 75 35 36 19 55 33 43 30 -13 -2 -23 0 -23 4 0 5 17 12 38 15 83 14 202 95 202 139 0 12 9 27 20 33 16 11 18 10 13 -3 -5 -13 -3 -14 13 -6 21 12 64 50 64 58 0 2 -9 0 -21 -6 -19 -11 -20 -10 -9 11 10 18 9 24 -4 31 -9 5 -16 18 -16 28 0 11 -4 20 -9 20 -5 0 -11 13 -13 30 -5 32 -2 35 22 21 10 -7 18 -4 28 10 7 10 20 19 29 19 13 0 15 -8 10 -41 l-5 -41 31 6 32 5 -34 -29 c-19 -16 -32 -33 -28 -36 4 -4 15 0 25 9 26 24 181 94 225 102 37 7 38 8 22 31 -18 28 -10 50 38 101 29 31 30 34 20 80 -13 56 -3 134 21 180 11 21 18 58 19 103 1 59 -3 73 -21 93 -12 13 -22 30 -22 38 0 8 -11 31 -25 51 -14 20 -25 49 -25 63 0 32 -14 61 -48 97 l-25 28 -9 287 c-6 159 -11 290 -13 292 -2 2 -29 4 -60 5 -31 1 -59 7 -63 13 -4 6 -23 14 -43 18 -35 6 -66 23 -149 78 l-42 29 -22 -21 c-27 -25 -44 -26 -68 -4 -17 15 -21 15 -57 -1 -21 -10 -48 -15 -59 -12 -12 4 -33 -1 -53 -14 -65 -38 -78 -41 -112 -23 -18 9 -37 23 -43 32 -10 12 -16 13 -37 4 -21 -10 -29 -9 -48 8 -12 10 -26 19 -30 19 -11 0 -49 -51 -49 -66 0 -8 -4 -14 -10 -14 -10 0 -14 14 -11 38 2 10 -8 12 -43 7 -31 -5 -46 -4 -46 4 0 6 -6 11 -14 11 -8 0 -16 7 -20 15 -7 20 -23 19 -53 -5 -34 -27 -50 -25 -57 5 -4 14 -13 25 -21 25 -8 0 -17 11 -21 25 -5 20 -12 25 -40 25 -18 0 -45 -5 -60 -12 -22 -10 -28 -10 -39 5 -7 10 -25 17 -43 17 -17 0 -43 5 -59 12 -27 11 -35 13 -75 17 -11 0 -18 9 -18 21 0 28 -37 63 -58 55 -45 -18 -86 -11 -117 21 -17 17 -39 35 -49 41 -17 9 -17 27 -6 354 10 307 10 344 -4 355 -9 6 -94 13 -218 18 -198 6 -501 21 -605 30 -29 3 -55 0 -59 -5z"/>
                <path name="GA" d="M13960 4020 c-102 -16 -256 -36 -342 -46 -87 -10 -162 -20 -167 -24 -6 -3 10 -68 40 -160 28 -85 77 -252 110 -370 57 -206 105 -340 121 -340 12 0 39 -60 32 -71 -3 -6 2 -19 12 -30 17 -18 16 -20 -5 -43 -12 -13 -21 -32 -20 -42 1 -11 -1 -38 -5 -62 -6 -34 -4 -50 13 -83 17 -31 21 -57 20 -109 -1 -53 3 -74 18 -97 10 -15 32 -54 47 -85 22 -45 33 -58 51 -58 28 0 691 48 758 54 46 5 49 4 69 -29 11 -19 26 -35 34 -35 23 0 38 50 25 86 -27 74 -5 97 76 78 30 -7 61 -10 69 -7 16 6 18 25 4 39 -7 7 -7 27 -1 60 6 30 6 50 0 52 -5 2 -9 8 -9 13 0 4 6 6 13 3 19 -7 43 41 29 58 -7 9 -6 20 3 38 18 32 18 38 0 42 -12 2 -10 9 11 33 21 25 23 31 10 33 -22 5 -20 15 5 30 16 10 18 17 10 25 -16 16 -14 27 7 27 9 0 26 12 36 27 19 25 19 26 1 39 -11 8 -31 14 -47 14 -22 0 -29 5 -33 28 -12 54 -49 114 -82 130 -19 9 -33 23 -33 33 0 43 -48 120 -86 139 -41 21 -84 56 -84 68 0 5 -7 12 -15 16 -8 3 -15 13 -15 23 0 18 -56 63 -77 63 -6 0 -23 16 -37 35 -15 19 -44 44 -65 54 -44 23 -98 80 -136 145 -18 31 -35 48 -53 52 -15 3 -34 10 -42 15 -8 5 -30 16 -48 25 -18 8 -35 21 -38 28 -5 14 11 50 42 94 16 21 16 22 -12 21 -16 -1 -112 -14 -214 -29z"/>
                <path name="AL" d="M13130 3905 c-52 -7 -212 -23 -355 -35 -143 -12 -262 -24 -265 -27 -3 -2 5 -12 16 -22 l21 -17 -9 -565 -10 -564 36 -270 c20 -148 38 -270 39 -271 1 -1 23 -5 50 -9 l47 -7 0 43 c0 24 3 54 6 66 9 33 46 12 44 -25 -3 -44 -1 -48 26 -61 32 -14 28 -42 -6 -52 -20 -6 -21 -7 -5 -8 35 -2 95 19 95 33 0 8 11 17 24 20 21 5 25 12 28 61 3 53 1 57 -34 89 -39 34 -48 66 -25 83 6 6 68 15 137 22 168 15 654 73 660 78 2 2 -6 22 -18 44 -18 31 -22 53 -21 107 1 50 -4 76 -18 103 -18 34 -19 43 -7 110 7 40 17 75 23 77 14 5 15 42 1 42 -5 0 -10 13 -10 29 0 16 -11 42 -24 58 -39 46 -66 118 -122 321 -29 106 -79 275 -111 377 l-58 185 -30 -1 c-16 -1 -73 -7 -125 -14z"/>
                <path name="MS" d="M12010 3838 c-280 -23 -280 -23 -280 -48 0 -20 -34 -45 -49 -36 -4 3 -6 -6 -3 -21 4 -21 2 -25 -11 -20 -14 5 -16 -2 -15 -53 2 -58 -11 -90 -36 -90 -6 0 -17 -14 -24 -30 -8 -17 -18 -28 -23 -24 -5 3 -9 -12 -9 -34 0 -31 -5 -41 -23 -49 -19 -9 -23 -17 -19 -47 3 -23 0 -36 -8 -36 -7 0 -9 -8 -5 -20 5 -16 3 -19 -11 -13 -14 5 -16 2 -12 -15 4 -12 2 -24 -2 -27 -10 -6 -1 -45 11 -45 5 0 6 -7 3 -15 -4 -8 -2 -15 3 -15 5 0 14 -20 20 -45 8 -35 7 -45 -2 -45 -7 0 -12 -10 -12 -22 1 -13 -2 -33 -6 -45 -7 -18 -5 -21 13 -16 23 6 28 -15 8 -35 -9 -9 -7 -16 6 -31 11 -12 14 -21 7 -26 -20 -11 -13 -37 8 -30 14 4 19 1 17 -12 0 -10 -5 -21 -11 -25 -6 -4 3 -19 21 -36 l31 -28 -33 -24 c-40 -26 -43 -37 -12 -42 20 -3 21 -4 5 -19 -9 -9 -13 -19 -10 -23 4 -4 -12 -26 -35 -49 -24 -24 -40 -46 -36 -49 3 -3 -3 -21 -12 -40 -10 -18 -18 -36 -19 -40 0 -3 -3 -10 -7 -14 -4 -4 -5 -18 -2 -30 4 -14 2 -24 -5 -24 -6 0 -8 -7 -4 -16 4 -10 0 -22 -10 -29 -13 -10 -15 -18 -7 -45 7 -24 6 -38 -2 -48 -14 -16 31 -15 406 13 105 8 191 13 192 12 2 -2 -4 -26 -12 -56 -17 -57 -9 -99 25 -124 10 -7 23 -28 31 -47 16 -41 38 -70 55 -70 6 0 20 12 32 28 13 18 40 33 79 45 32 11 66 22 74 26 8 4 26 2 39 -5 15 -8 31 -9 40 -4 9 4 28 6 42 3 15 -3 29 -1 32 4 3 5 -11 137 -32 293 l-38 285 10 558 c10 543 10 558 -9 572 -24 18 -66 17 -364 -7z"/>
                <path name="AK" d="M1297 3643 c-33 -52 -55 -68 -104 -80 -31 -8 -43 -8 -46 1 -3 6 -26 -11 -53 -37 -55 -55 -96 -80 -117 -71 -19 7 -85 -85 -103 -145 -20 -69 -63 -108 -128 -116 -28 -4 -59 -6 -66 -5 -31 5 -38 -1 -44 -34 -4 -19 -13 -40 -21 -46 -13 -11 -10 -17 22 -47 136 -123 163 -158 163 -209 0 -29 38 -47 88 -42 17 2 32 0 32 -4 0 -4 8 -8 18 -8 14 0 17 -9 17 -44 0 -24 -3 -42 -7 -39 -5 2 -8 12 -8 22 0 10 -9 26 -19 35 -31 28 -37 -1 -7 -33 15 -16 26 -39 26 -55 0 -16 4 -25 11 -21 13 9 59 -3 59 -14 0 -5 -9 -7 -20 -4 -14 4 -23 -2 -30 -19 -11 -23 -13 -23 -83 -15 -111 14 -103 4 -82 100 3 13 -3 17 -29 17 -18 0 -41 -7 -52 -15 -10 -8 -28 -15 -40 -15 -25 0 -44 -18 -44 -43 0 -14 -5 -17 -21 -12 -24 8 -75 -11 -83 -31 -3 -8 -14 -14 -24 -14 -11 0 -25 -7 -32 -15 -7 -8 -22 -15 -34 -15 -18 -1 -17 -5 16 -35 20 -18 55 -39 77 -45 36 -10 40 -13 27 -25 -8 -8 -22 -15 -31 -15 -14 0 -13 -3 2 -27 10 -15 18 -39 18 -53 0 -20 9 -30 45 -47 39 -20 55 -22 123 -17 67 6 80 4 99 -12 20 -19 21 -19 14 6 l-7 25 20 -26 21 -26 40 38 c23 22 49 39 59 39 10 0 24 7 32 16 11 14 14 13 27 -11 15 -30 3 -55 -29 -55 -24 0 -24 -22 0 -37 10 -6 21 -29 25 -51 3 -22 8 -47 12 -55 3 -8 -5 -27 -18 -42 -19 -22 -33 -28 -69 -29 -39 -1 -50 -7 -86 -44 -43 -45 -58 -47 -95 -10 -23 23 -57 23 -65 1 -3 -10 -14 -26 -24 -35 -12 -12 -16 -28 -14 -48 3 -25 0 -33 -19 -40 -28 -10 -87 -96 -80 -115 3 -8 -4 -16 -16 -20 -12 -4 -19 -12 -17 -18 2 -7 -3 -18 -12 -24 -14 -11 -13 -13 6 -19 18 -5 22 -11 17 -30 -4 -15 -2 -24 5 -24 6 0 11 -6 11 -14 0 -19 20 -32 29 -18 4 7 12 6 24 -3 12 -8 14 -15 8 -20 -16 -9 -13 -23 4 -27 12 -2 8 -11 -16 -37 -29 -33 -30 -35 -13 -48 10 -7 14 -13 10 -13 -4 0 13 -21 38 -46 25 -25 45 -48 45 -52 -6 -43 50 -52 120 -21 38 18 51 30 54 49 3 27 2 29 27 -35 4 -11 14 -36 22 -55 14 -31 14 -39 0 -67 -13 -27 -13 -35 -1 -49 15 -18 13 -72 -3 -91 -7 -9 -6 -14 5 -19 17 -6 57 12 57 26 0 6 5 10 10 10 6 0 28 11 49 24 l38 24 25 -23 c16 -15 30 -20 38 -15 15 9 42 -16 66 -62 21 -40 48 -38 40 3 -6 32 1 79 13 79 3 0 12 -13 19 -30 17 -37 33 -37 100 -1 42 24 52 26 52 13 0 -9 -11 -27 -24 -41 -32 -35 -42 -69 -21 -77 14 -6 14 -8 1 -18 -9 -6 -16 -33 -18 -63 -4 -47 -9 -57 -56 -107 -36 -38 -52 -63 -52 -81 0 -17 -5 -25 -12 -22 -7 2 -26 -7 -41 -19 -16 -13 -34 -24 -40 -24 -7 0 -34 -20 -61 -44 -44 -41 -48 -48 -44 -81 3 -25 0 -34 -8 -31 -6 2 -17 -1 -23 -7 -9 -9 -13 -6 -17 11 -14 50 -125 8 -177 -67 -13 -19 -41 -43 -62 -56 -22 -12 -40 -28 -41 -36 -3 -39 -6 -43 -14 -21 -11 25 -37 28 -91 9 -42 -15 -94 -70 -85 -92 8 -22 50 -18 71 5 13 14 31 21 59 20 71 0 86 2 86 10 0 5 -6 10 -12 13 -10 3 -8 9 5 24 9 11 14 23 10 26 -3 4 -1 7 5 7 7 0 12 -4 12 -10 0 -5 9 -10 20 -10 14 0 20 7 20 23 1 20 2 20 11 5 5 -10 14 -18 20 -18 16 0 59 51 74 87 16 38 38 45 29 9 -3 -13 -2 -26 3 -29 11 -7 83 16 83 26 0 5 4 6 9 2 5 -3 27 11 48 30 46 42 62 44 56 8 -4 -27 -4 -27 11 -9 9 11 16 23 16 27 0 4 10 11 23 14 12 4 34 19 50 33 22 21 27 23 27 9 0 -23 20 -22 21 1 0 9 2 25 4 34 2 10 -1 20 -6 24 -17 10 2 24 32 24 26 0 29 3 24 21 -5 16 -3 20 11 17 10 -2 22 6 29 18 5 11 15 19 21 17 6 -2 17 3 24 12 7 8 18 15 25 15 23 0 50 41 46 72 -2 23 2 31 18 35 12 3 21 9 21 14 0 5 7 9 15 9 8 0 17 11 21 24 3 15 11 23 19 20 7 -3 21 7 30 23 9 16 36 38 58 49 31 15 42 26 41 42 0 12 4 22 9 22 5 0 7 5 5 12 -2 6 13 29 34 50 21 21 38 43 38 47 0 15 -48 41 -75 41 -20 0 -25 5 -25 25 0 14 9 30 20 37 11 7 20 21 20 30 0 10 5 18 10 18 19 0 25 2 38 12 6 6 12 18 12 28 0 10 9 20 20 23 21 5 28 41 10 52 -6 4 -1 15 14 26 15 12 22 26 19 37 -2 11 6 31 21 49 14 17 23 33 19 37 -4 3 15 27 42 53 34 32 59 47 82 50 18 2 33 -1 33 -6 0 -6 12 -17 26 -24 l27 -14 -27 -7 c-15 -4 -36 -4 -47 -1 -14 5 -30 -4 -58 -31 -34 -34 -37 -42 -29 -65 6 -19 4 -38 -8 -70 -9 -24 -17 -60 -18 -79 -1 -33 1 -35 32 -34 17 1 32 -1 32 -5 -1 -10 -24 -35 -45 -47 -41 -23 -21 -67 23 -48 9 4 19 8 22 8 20 5 48 29 60 50 7 14 19 26 25 26 17 0 46 35 38 45 -5 4 -1 6 8 2 13 -4 16 -1 11 15 -3 13 -1 19 5 15 6 -4 13 1 15 11 4 13 16 18 44 20 23 1 45 10 54 21 12 13 22 16 38 10 12 -5 22 -6 22 -3 0 9 -30 36 -30 27 0 -4 -5 -1 -10 7 -6 10 -4 22 5 36 12 18 12 24 1 33 -7 6 -16 8 -19 5 -4 -4 -5 7 -4 24 1 17 4 28 6 26 8 -7 41 29 41 44 0 11 3 12 13 4 9 -8 21 -7 41 3 35 18 36 18 36 0 0 -8 7 -15 15 -15 9 0 12 -6 9 -15 -7 -18 7 -20 24 -3 9 9 12 9 12 0 0 -7 10 -12 22 -12 21 0 21 0 2 -14 -19 -15 -19 -15 1 -14 11 0 35 -3 53 -7 18 -4 32 -4 32 2 0 5 7 18 15 29 15 19 16 19 13 -1 -4 -30 10 -45 43 -45 17 0 32 -6 35 -15 8 -21 25 -19 90 10 39 17 74 25 116 25 43 0 60 4 64 15 4 8 10 12 16 9 5 -3 7 -12 4 -19 -6 -17 15 -25 65 -25 30 0 46 6 64 26 14 15 25 31 25 37 0 5 7 4 15 -3 18 -15 20 -57 3 -63 -16 -5 86 -37 119 -37 29 0 103 -29 103 -41 0 -12 57 -40 115 -55 63 -17 65 -17 65 1 0 8 9 15 20 15 21 0 24 8 14 35 -6 14 -47 37 -99 56 -19 7 -19 7 2 8 12 1 25 -4 29 -10 3 -6 16 -8 27 -5 23 6 57 -18 57 -41 0 -15 9 -16 30 -3 10 6 20 4 33 -7 11 -11 21 -13 27 -7 6 6 -3 29 -25 63 -20 30 -34 55 -32 57 4 4 64 -52 87 -81 8 -10 10 -16 3 -12 -21 13 -23 -10 -3 -28 31 -28 24 -32 -36 -24 -67 9 -99 -6 -109 -51 -7 -32 1 -54 16 -45 5 4 9 1 9 -4 0 -6 7 -11 15 -11 8 0 15 -4 15 -10 0 -5 6 -10 14 -10 14 0 66 -71 66 -91 0 -6 6 -9 12 -6 7 2 12 12 10 21 -3 15 0 16 17 6 12 -6 21 -18 21 -28 1 -21 113 -119 118 -103 6 17 -25 88 -61 140 -17 25 -32 51 -32 56 -1 6 -7 9 -14 7 -9 -2 -11 3 -7 14 3 9 1 23 -5 31 -20 24 -3 24 24 0 16 -13 27 -33 27 -47 1 -60 31 -58 48 3 12 42 -4 105 -36 140 -9 11 -12 18 -7 15 6 -2 25 -10 43 -17 25 -10 30 -16 21 -22 -11 -6 -10 -12 6 -27 11 -10 29 -24 40 -30 11 -6 14 -12 8 -12 -7 0 -13 -7 -13 -15 0 -11 11 -14 44 -12 36 2 46 -1 49 -15 4 -15 2 -16 -16 -6 -14 7 -22 7 -25 0 -1 -5 -12 -8 -22 -5 -25 7 -70 -4 -70 -17 0 -5 9 -12 20 -15 29 -9 25 -27 -5 -19 -22 5 -25 3 -25 -18 0 -14 9 -33 20 -43 11 -10 20 -28 20 -40 0 -13 9 -33 21 -46 15 -17 19 -19 15 -6 -3 9 -1 17 5 17 6 0 8 8 5 18 -14 51 -17 82 -7 82 6 0 11 -7 11 -15 0 -19 5 -19 36 1 14 10 23 23 20 30 -6 17 6 18 21 3 8 -8 16 -4 29 16 l17 27 12 -23 c10 -17 9 -27 -1 -48 -18 -34 2 -55 51 -55 31 0 34 -2 29 -22 -4 -16 0 -26 15 -34 26 -13 37 6 26 48 -5 20 -4 24 5 16 6 -6 14 -31 17 -55 6 -50 19 -70 38 -63 7 3 16 1 20 -5 9 -16 25 -14 25 3 0 16 -27 29 -41 21 -5 -4 -6 1 -3 9 5 12 10 13 25 5 11 -5 23 -8 27 -5 5 3 15 -4 23 -15 38 -55 38 -55 49 -39 5 8 10 11 10 5 0 -5 7 -1 15 9 9 11 15 41 15 68 0 40 -6 56 -31 88 -17 21 -28 43 -25 49 23 36 -58 66 -179 66 -53 0 -63 3 -95 32 -19 18 -41 33 -47 33 -7 0 -13 7 -13 14 0 8 -17 27 -37 43 -21 15 -72 55 -113 88 -87 71 -141 105 -164 105 -9 0 -25 9 -36 20 -11 11 -34 23 -51 27 -19 3 -35 16 -44 33 -39 75 -129 35 -134 -59 -2 -33 -11 -54 -34 -82 l-32 -38 -19 25 c-10 14 -50 42 -88 62 -125 67 -133 72 -139 94 -7 28 -43 27 -67 -2 -12 -14 -31 -21 -67 -23 l-49 -2 -266 898 -265 899 -70 25 c-84 30 -148 31 -178 2 -18 -16 -30 -19 -62 -14 -42 6 -89 8 -140 5 -16 -1 -50 3 -75 10 -72 19 -117 23 -124 11 -4 -6 -22 -11 -41 -11 -19 0 -36 -4 -39 -9 -3 -4 -17 -6 -31 -4 -14 3 -22 10 -18 16 4 6 -2 8 -15 5 -21 -6 -24 -3 -26 31 -2 24 -62 34 -98 16 -41 -20 -47 -19 -58 9 -11 31 -45 30 -59 -1 -6 -13 -17 -23 -26 -23 -19 0 -20 16 0 24 21 8 19 46 -2 46 -9 0 -24 7 -34 16 -16 15 -19 13 -42 -23z"/>
                <path name="LA" d="M10940 2914 c-140 -8 -315 -17 -389 -20 l-133 -6 6 -37 c3 -20 6 -103 6 -184 0 -144 1 -149 25 -173 31 -31 55 -76 55 -103 0 -22 54 -134 79 -164 22 -26 16 -140 -10 -194 -24 -49 -31 -115 -18 -170 6 -27 4 -46 -7 -70 -9 -17 -13 -36 -10 -42 4 -5 -3 -19 -15 -30 -28 -26 -19 -56 14 -47 12 4 46 9 75 13 51 6 74 19 56 32 -5 3 -2 20 7 38 9 18 19 30 23 26 11 -11 7 -51 -6 -55 -21 -7 1 -26 39 -33 21 -4 63 -17 93 -30 77 -32 187 -48 228 -33 34 13 40 30 18 50 -11 11 -8 16 23 30 45 22 61 22 61 2 0 -12 7 -14 29 -9 30 6 60 -13 73 -46 7 -18 73 -40 85 -29 4 5 15 -7 24 -26 9 -18 13 -31 9 -29 -13 8 -34 -25 -24 -35 5 -5 31 -11 57 -14 27 -3 54 -9 60 -14 7 -5 31 -9 55 -10 39 -1 42 1 42 26 0 21 7 30 30 39 17 7 32 7 36 2 3 -5 16 -9 30 -9 19 0 24 -5 24 -24 0 -67 63 -23 68 47 2 38 -1 45 -23 55 -14 6 -25 16 -25 22 0 13 -4 14 65 -13 44 -17 60 -29 58 -41 -1 -14 5 -17 24 -13 15 3 27 -1 30 -9 3 -8 18 -14 34 -14 19 0 29 -5 29 -15 0 -17 34 -38 45 -27 4 4 0 -8 -9 -26 -22 -42 -14 -54 10 -15 10 15 19 30 21 32 2 2 12 -4 23 -14 19 -18 20 -17 20 2 0 10 6 28 14 38 12 16 10 21 -13 40 -14 12 -48 28 -75 35 -27 8 -58 22 -68 32 -10 10 -24 18 -32 18 -8 0 -18 5 -21 10 -9 15 23 43 40 36 13 -5 14 -2 4 15 -12 23 -4 35 26 41 21 3 35 48 16 48 -6 0 -11 9 -11 19 0 11 -4 22 -9 25 -16 10 -41 -5 -41 -24 0 -10 -7 -23 -15 -30 -12 -10 -16 -9 -21 4 -4 10 -13 15 -20 12 -26 -10 -27 17 -1 36 15 11 27 23 27 27 0 10 -62 6 -85 -6 -28 -15 -109 -26 -134 -18 -27 8 -27 27 2 70 17 27 29 35 53 35 18 0 38 -8 49 -20 10 -11 31 -20 46 -20 15 0 31 -4 34 -10 3 -5 22 -10 42 -10 l36 0 -20 23 c-11 12 -25 36 -31 53 -5 17 -22 43 -36 57 -29 29 -32 55 -14 122 7 24 10 46 7 48 -2 3 -76 -1 -164 -8 -313 -25 -422 -28 -423 -14 0 8 -3 29 -6 46 -4 23 0 35 11 42 10 5 14 15 10 25 -4 9 -2 16 3 16 5 0 7 14 4 30 -5 20 -3 30 6 30 7 0 10 7 6 15 -3 8 -2 15 3 15 9 0 23 34 25 61 1 8 18 30 39 48 20 18 36 38 35 45 -1 6 4 21 11 34 11 20 10 23 -5 20 -9 -2 -19 3 -21 10 -3 6 1 12 7 12 7 0 22 8 35 18 l24 19 -29 25 c-22 19 -27 31 -24 56 3 23 0 30 -10 26 -20 -8 -28 12 -11 26 13 11 13 14 -2 26 -15 11 -16 16 -5 33 18 30 15 44 -9 38 -15 -4 -19 -2 -15 9 6 17 -2 17 -364 -2z"/>
                <path name="FL" d="M14826 2347 c-15 -11 -17 -20 -11 -43 4 -16 8 -47 9 -69 1 -34 -2 -40 -20 -43 -16 -2 -23 4 -28 22 -4 16 -16 28 -30 32 -13 3 -185 -6 -382 -20 -198 -15 -377 -27 -398 -29 -35 -2 -41 1 -58 33 -36 65 -23 63 -259 35 -118 -14 -294 -35 -392 -45 -98 -10 -185 -24 -193 -31 -28 -23 -6 -71 45 -98 18 -10 21 -18 16 -38 -4 -17 0 -32 11 -44 16 -18 16 -20 -1 -39 -23 -25 -15 -33 19 -21 29 12 69 69 59 85 -4 6 1 5 10 -3 14 -11 18 -11 23 3 5 13 9 14 20 5 20 -17 17 -28 -11 -39 -43 -16 -27 -19 33 -4 31 7 68 13 81 14 14 0 33 8 43 17 21 19 94 28 103 14 3 -5 -14 -13 -37 -17 l-43 -7 81 -18 c45 -9 100 -27 123 -38 44 -23 51 -19 24 11 -9 10 -14 20 -11 23 9 9 38 -6 38 -20 0 -19 61 -82 90 -93 27 -10 58 -57 46 -69 -4 -4 -11 -1 -16 7 -8 13 -10 13 -10 -1 0 -9 7 -20 16 -23 18 -7 121 21 129 35 4 5 15 9 26 9 10 0 39 16 65 35 25 19 56 35 68 35 19 0 22 4 18 29 -5 33 5 41 61 52 52 9 154 -34 185 -79 12 -16 33 -33 47 -36 18 -5 27 -15 31 -35 3 -15 18 -35 32 -44 15 -9 44 -32 65 -52 28 -25 47 -35 71 -35 32 0 66 -24 66 -48 0 -6 11 -20 26 -31 23 -18 25 -26 26 -113 1 -51 -3 -136 -9 -188 -10 -96 -6 -121 18 -126 45 -10 54 -8 57 12 4 27 37 58 51 49 16 -9 13 -31 -9 -67 -11 -18 -20 -40 -20 -49 0 -9 -10 -23 -22 -32 l-23 -15 32 -18 c18 -11 33 -25 33 -32 0 -15 82 -146 97 -155 19 -12 63 -15 63 -6 0 6 -4 18 -10 29 -7 14 -6 17 8 16 21 -1 30 -21 31 -63 1 -17 5 -43 11 -58 8 -22 13 -24 30 -15 16 9 18 8 14 -5 -4 -9 4 -23 19 -35 14 -11 29 -35 32 -53 4 -17 19 -51 34 -74 23 -37 31 -42 63 -43 54 0 79 -15 118 -71 63 -90 80 -108 107 -111 15 -2 29 -9 31 -17 5 -14 -10 -13 -49 3 -24 10 -31 -19 -11 -45 17 -20 19 -20 56 -5 21 9 51 16 66 16 16 0 41 10 57 23 32 26 75 26 66 -1 -3 -9 -13 -25 -21 -35 -8 -9 -13 -20 -9 -23 6 -6 51 69 62 103 5 17 3 22 -7 18 -19 -7 -18 139 0 157 6 6 12 20 12 29 0 10 4 19 9 21 4 2 3 75 -4 163 -14 179 -30 238 -82 293 -18 19 -33 38 -33 41 0 14 -75 148 -109 196 -20 27 -30 45 -22 41 8 -6 7 1 -4 18 -10 14 -21 26 -24 26 -10 0 -11 10 -16 90 -2 36 -4 69 -4 73 -1 4 -20 29 -44 55 -105 116 -189 235 -250 357 -31 64 -87 203 -87 219 0 6 -8 23 -17 36 -10 14 -16 36 -15 51 3 25 1 26 -60 32 -35 4 -72 9 -83 12 -11 3 -29 0 -39 -8z"/>
                <path name="HI" d="M4196 2201 c-26 -16 -56 -42 -66 -57 -17 -26 -17 -29 -2 -51 18 -25 96 -70 146 -84 26 -8 34 -4 63 26 18 19 33 42 33 51 0 10 5 33 12 51 11 31 10 35 -12 57 -17 16 -41 26 -75 30 -43 5 -57 2 -99 -23z"/>
                <path name="AK" d="M44 2194 c-10 -39 17 -62 52 -45 24 10 30 9 50 -10 13 -13 24 -27 24 -33 0 -6 9 -17 20 -24 11 -7 20 -20 20 -29 0 -14 4 -13 23 5 14 13 34 21 48 20 31 -4 33 26 2 30 -13 2 -43 24 -68 48 -38 38 -49 45 -73 40 -16 -4 -39 0 -56 9 -36 19 -34 20 -42 -11z"/>
                <path name="HI" d="M5095 1884 c-16 -8 -37 -21 -45 -29 -8 -7 -26 -15 -40 -17 -21 -2 -26 -9 -28 -38 -2 -31 4 -41 50 -87 42 -42 58 -51 76 -46 14 3 21 11 18 19 -3 8 -3 14 0 14 11 0 50 -23 71 -43 20 -18 26 -19 68 -7 25 7 44 16 42 19 -2 3 -12 25 -22 49 -14 32 -23 42 -42 42 -16 0 -27 8 -33 26 -12 29 -70 114 -79 114 -3 0 -19 -7 -36 -16z"/>
                <path name="HI" d="M5519 1575 l-16 -35 74 0 c46 0 94 -7 124 -17 45 -16 50 -16 84 0 26 12 35 22 31 33 -3 9 -6 19 -6 23 0 5 -11 6 -24 4 -13 -3 -68 2 -123 11 -55 9 -107 16 -114 16 -8 -1 -21 -16 -30 -35z"/>
                <path name="HI" d="M5862 1488 c-38 -49 -13 -100 67 -138 43 -19 51 -28 51 -50 0 -15 10 -36 25 -50 24 -22 25 -23 68 -6 23 9 55 16 70 16 15 0 40 12 58 28 40 36 35 73 -14 98 -17 9 -47 27 -65 41 -30 22 -39 24 -94 18 -58 -7 -61 -6 -88 24 -30 32 -61 40 -78 19z"/>
                <path name="AK" d="M3993 1223 c-25 -5 -32 -33 -9 -33 13 0 13 -5 0 -36 -14 -34 -14 -35 6 -24 11 6 20 15 20 20 0 6 6 10 14 10 9 0 17 -15 21 -38 7 -44 25 -78 25 -49 0 20 11 22 27 6 9 -9 6 -17 -8 -32 -25 -27 -24 -41 1 -34 13 3 20 0 20 -8 0 -15 60 -65 78 -65 7 0 10 10 8 23 -2 12 -10 22 -19 22 -9 0 -22 6 -29 13 -11 11 -10 12 6 6 16 -6 17 -4 11 17 -7 21 -6 22 8 10 9 -7 14 -17 11 -22 -3 -5 4 -9 16 -9 11 0 23 -7 26 -15 7 -17 30 -20 39 -4 10 16 -4 59 -19 59 -9 0 -12 7 -9 18 3 13 -5 21 -31 32 -19 7 -34 17 -33 20 1 4 -15 24 -35 44 -26 25 -46 36 -66 36 -21 0 -31 6 -35 20 -3 11 -9 19 -14 19 -4 -1 -18 -4 -30 -6z"/>
                <path name="HI" d="M6342 1025 c-17 -36 -15 -53 9 -91 l21 -34 -32 -50 c-18 -28 -41 -55 -51 -61 -10 -5 -26 -23 -34 -40 -15 -28 -14 -32 3 -57 11 -15 32 -62 47 -105 23 -69 26 -88 20 -148 -7 -69 5 -129 27 -129 5 0 34 -12 65 -27 l56 -26 24 29 c13 16 26 39 29 51 3 12 15 25 25 28 11 4 40 24 65 46 36 31 53 39 83 39 60 0 117 25 176 77 61 54 70 84 31 105 -27 14 -126 143 -126 164 0 43 -135 131 -257 167 -28 9 -75 32 -105 51 -29 20 -55 36 -59 36 -3 0 -11 -11 -17 -25z"/>
                <path name="AK" d="M1790 990 c0 -6 7 -13 16 -17 12 -4 13 -8 3 -14 -8 -4 -17 -1 -24 8 -7 9 -17 13 -23 9 -14 -8 -16 -36 -3 -36 5 0 7 -9 4 -20 -6 -23 -23 -27 -23 -5 0 22 -24 18 -47 -7 -28 -32 -35 -55 -17 -62 8 -3 14 -14 14 -24 0 -10 9 -27 19 -36 19 -17 20 -17 31 5 9 16 14 18 20 9 5 -8 2 -23 -7 -37 -12 -19 -13 -23 -2 -23 15 0 35 26 56 70 6 14 12 19 12 13 1 -18 26 -16 41 2 10 12 10 15 -2 15 -8 0 -15 7 -15 16 0 11 7 14 24 11 28 -5 39 8 23 28 -9 11 -7 12 8 9 10 -3 24 2 32 11 11 13 10 18 -5 29 -10 7 -15 18 -12 23 4 6 0 16 -8 23 -13 11 -18 10 -29 -5 -12 -16 -13 -16 -19 -1 -4 9 -14 16 -22 16 -9 0 -13 -5 -9 -11 4 -8 0 -8 -15 0 -14 8 -21 8 -21 1z"/>
                </g>
            </svg>